<?xml version="1.0" encoding="utf-8"?>
<!-- Generator: Adobe Illustrator 22.1.0, SVG Export Plug-In . SVG Version: 6.00 Build 0)  -->
<svg version="1.1" id="Business_People" xmlns="http://www.w3.org/2000/svg" xmlns:xlink="http://www.w3.org/1999/xlink" x="0px"
	 y="0px" viewBox="0 0 1320.1 1058.3" style="enable-background:new 0 0 1320.1 1058.3;" xml:space="preserve">
<style type="text/css">
	.st0{fill:#414042;}
	.st1{fill:#6D6E71;}
	.st2{fill:#E6E7E8;}
	.st3{fill:#BCBEC0;}
	.st4{fill:#A7A9AC;}
	.st5{fill:#A09D90;}
	.st6{fill:#3AD3C3;}
	.st7{fill:#D1D3D4;}
	.st8{fill:#1E14A5;stroke:#1E14A5;stroke-miterlimit:10;}
	.st9{fill:#8E89D2;stroke:#8E89D2;stroke-miterlimit:10;}
	.st10{fill:#BCBEC0;stroke:#8E89D2;stroke-miterlimit:10;}
</style>
<g>
	<rect x="201.9" y="358.1" class="st0" width="896.8" height="505.6"/>
	<path class="st1" d="M778.4,473.8c0-33.1-61.4-60-137.1-60s-137.1,26.8-137.1,60c0,0.7,0,1.5,0.1,2.2c-0.1,0.5-0.1,1-0.1,1.5v363.9
		c0,6.8,5.5,12.3,12.3,12.3h249.7c6.8,0,12.3-5.5,12.3-12.3V477.6c0-0.5,0-1-0.1-1.5C778.4,475.3,778.4,474.6,778.4,473.8z"/>
	<rect x="355.6" y="394" class="st2" width="88.9" height="448.8"/>
	<rect x="595.6" y="394" class="st2" width="88.9" height="448.8"/>
	<rect x="856.1" y="394" class="st2" width="88.9" height="448.8"/>
	<path class="st3" d="M458.2,427.9c0,6.5-5.3,11.8-11.7,11.8h-95c-6.5,0-11.7-5.3-11.7-11.8l0,0c0-6.5,5.3-11.7,11.7-11.7h95
		C452.9,416.2,458.2,421.4,458.2,427.9L458.2,427.9z"/>
	<path class="st3" d="M698.2,427.9c0,6.5-5.3,11.8-11.8,11.8h-95c-6.5,0-11.8-5.3-11.8-11.8l0,0c0-6.5,5.3-11.7,11.8-11.7h95
		C693,416.2,698.2,421.4,698.2,427.9L698.2,427.9z"/>
	<path class="st3" d="M958.7,427.9c0,6.5-5.3,11.8-11.8,11.8h-95c-6.5,0-11.8-5.3-11.8-11.8l0,0c0-6.5,5.3-11.7,11.8-11.7h95
		C953.4,416.2,958.7,421.4,958.7,427.9L958.7,427.9z"/>
	<path class="st3" d="M458.2,805.4c0,6.5-5.3,11.8-11.7,11.8h-95c-6.5,0-11.7-5.3-11.7-11.8l0,0c0-6.5,5.3-11.7,11.7-11.7h95
		C452.9,793.7,458.2,799,458.2,805.4L458.2,805.4z"/>
	<path class="st3" d="M698.2,805.4c0,6.5-5.3,11.8-11.8,11.8h-95c-6.5,0-11.8-5.3-11.8-11.8l0,0c0-6.5,5.3-11.7,11.8-11.7h95
		C693,793.7,698.2,799,698.2,805.4L698.2,805.4z"/>
	<path class="st3" d="M958.7,805.4c0,6.5-5.3,11.8-11.8,11.8h-95c-6.5,0-11.8-5.3-11.8-11.8l0,0c0-6.5,5.3-11.7,11.8-11.7h95
		C953.4,793.7,958.7,799,958.7,805.4L958.7,805.4z"/>
	<path class="st3" d="M469,386.2c0,7.6-6.1,13.7-13.7,13.7H344.7c-7.6,0-13.7-6.1-13.7-13.7l0,0c0-7.6,6.1-13.7,13.7-13.7h110.6
		C462.8,372.5,469,378.6,469,386.2L469,386.2z"/>
	<path class="st3" d="M709,386.2c0,7.6-6.1,13.7-13.7,13.7H584.8c-7.6,0-13.7-6.1-13.7-13.7l0,0c0-7.6,6.1-13.7,13.7-13.7h110.6
		C702.9,372.5,709,378.6,709,386.2L709,386.2z"/>
	<path class="st4" d="M966.4,386.2c0,7.6-6.1,13.7-13.7,13.7H842.2c-7.6,0-13.7-6.1-13.7-13.7l0,0c0-7.6,6.1-13.7,13.7-13.7h110.6
		C960.3,372.5,966.4,378.6,966.4,386.2L966.4,386.2z"/>
	<path class="st3" d="M469,840.1c0,7.5-6.1,13.7-13.7,13.7H344.7c-7.6,0-13.7-6.1-13.7-13.7l0,0c0-7.6,6.1-13.7,13.7-13.7h110.6
		C462.8,826.4,469,832.5,469,840.1L469,840.1z"/>
	<path class="st3" d="M707.9,840.1c0,7.5-6.1,13.7-13.7,13.7H583.7c-7.6,0-13.7-6.1-13.7-13.7l0,0c0-7.6,6.1-13.7,13.7-13.7h110.6
		C701.8,826.4,707.9,832.5,707.9,840.1L707.9,840.1z"/>
	<path class="st3" d="M969.5,840.1c0,7.5-6.1,13.7-13.7,13.7H845.3c-7.6,0-13.7-6.1-13.7-13.7l0,0c0-7.6,6.1-13.7,13.7-13.7h110.6
		C963.4,826.4,969.5,832.5,969.5,840.1L969.5,840.1z"/>
	<rect x="1029.7" y="394" class="st2" width="88.9" height="448.8"/>
	<path class="st3" d="M1132.3,427.9c0,6.5-5.3,11.8-11.8,11.8h-95c-6.5,0-11.8-5.3-11.8-11.8l0,0c0-6.5,5.3-11.7,11.8-11.7h95
		C1127,416.2,1132.3,421.4,1132.3,427.9L1132.3,427.9z"/>
	<path class="st3" d="M1132.3,805.4c0,6.5-5.3,11.8-11.8,11.8h-95c-6.5,0-11.8-5.3-11.8-11.8l0,0c0-6.5,5.3-11.7,11.8-11.7h95
		C1127,793.7,1132.3,799,1132.3,805.4L1132.3,805.4z"/>
	<path class="st3" d="M1140,386.2c0,7.6-6.1,13.7-13.7,13.7h-110.6c-7.6,0-13.7-6.1-13.7-13.7l0,0c0-7.6,6.1-13.7,13.7-13.7h110.6
		C1133.8,372.5,1140,378.6,1140,386.2L1140,386.2z"/>
	<path class="st3" d="M1143,840.1c0,7.5-6.1,13.7-13.7,13.7h-110.6c-7.6,0-13.7-6.1-13.7-13.7l0,0c0-7.6,6.1-13.7,13.7-13.7h110.6
		C1136.9,826.4,1143,832.5,1143,840.1L1143,840.1z"/>
	<rect x="185" y="394" class="st2" width="88.9" height="448.8"/>
	<path class="st3" d="M287.6,427.9c0,6.5-5.3,11.8-11.8,11.8h-95c-6.5,0-11.8-5.3-11.8-11.8l0,0c0-6.5,5.3-11.7,11.8-11.7h95
		C282.4,416.2,287.6,421.4,287.6,427.9L287.6,427.9z"/>
	<path class="st3" d="M287.6,805.4c0,6.5-5.3,11.8-11.8,11.8h-95c-6.5,0-11.8-5.3-11.8-11.8l0,0c0-6.5,5.3-11.7,11.8-11.7h95
		C282.4,793.7,287.6,799,287.6,805.4L287.6,805.4z"/>
	<path class="st3" d="M295.4,386.2c0,7.6-6.1,13.7-13.7,13.7H171.1c-7.6,0-13.7-6.1-13.7-13.7l0,0c0-7.6,6.1-13.7,13.7-13.7h110.6
		C289.2,372.5,295.4,378.6,295.4,386.2L295.4,386.2z"/>
	<path class="st5" d="M298.4,840.1c0,7.5-6.1,13.7-13.7,13.7H174.2c-7.6,0-13.7-6.1-13.7-13.7l0,0c0-7.6,6.1-13.7,13.7-13.7h110.6
		C292.3,826.4,298.4,832.5,298.4,840.1L298.4,840.1z"/>
	<rect x="151.3" y="318.1" class="st1" width="988.7" height="54.4"/>
	<rect x="129.5" y="853.7" class="st4" width="1021.1" height="34.5"/>
	<rect x="87.3" y="888.2" class="st6" width="1100.1" height="34.5"/>
	<polygon class="st3" points="646.3,106.7 145.1,318.1 1142.2,318.1 	"/>
	<polygon class="st0" points="1222,316.8 645.8,72.4 645.7,72.2 645.5,72.3 645.3,72.2 645.2,72.4 69,316.8 87.7,343.8 645.5,107.1 
		1203.3,343.8 	"/>
	<path class="st1" d="M736,220c0,49.1-39.8,88.8-88.8,88.8c-49.1,0-88.8-39.8-88.8-88.8c0-49.1,39.8-88.8,88.8-88.8
		C696.2,131.2,736,171,736,220z"/>
	
		<ellipse transform="matrix(2.497653e-02 -0.9997 0.9997 2.497653e-02 411.0561 861.5008)" class="st7" cx="647.2" cy="220" rx="75.3" ry="75.3"/>
	<g id="Coin_1_">
		<g id="Coin_2_">
			<g>
				<g>
					<path class="st8" d="M298.4,895.7c0-7.2-4.2-13-9.4-13H179.7c-5.2,0-9.4,5.8-9.4,13v13.6c0,0.4,0,0.8,0,1.2c0,0.3,0,0.5,0,0.8
						c0,15.8,28.7,28.5,64,28.5c35.4,0,64-12.8,64-28.5c0-0.3,0-0.5,0-0.8c0-0.4,0-0.8,0-1.2V895.7z"/>
					<path class="st9" d="M298.4,893.7c0,15.8-28.7,28.5-64,28.5c-35.4,0-64-12.8-64-28.5c0-15.8,28.7-28.5,64-28.5
						C269.8,865.2,298.4,877.9,298.4,893.7z"/>
				</g>
				<g>
					<path class="st8" d="M279.4,858.4c0-7.2-4.2-13-9.4-13H160.7c-5.2,0-9.4,5.8-9.4,13V872c0,0.4,0,0.8,0,1.2c0,0.3,0,0.5,0,0.8
						c0,15.8,28.7,28.5,64,28.5c35.4,0,64-12.8,64-28.5c0-0.3,0-0.5,0-0.8c0-0.4,0-0.8,0-1.2V858.4z"/>
					<path class="st9" d="M279.4,856.4c0,15.8-28.7,28.5-64,28.5c-35.4,0-64-12.8-64-28.5c0-15.8,28.7-28.5,64-28.5
						C250.7,827.9,279.4,840.6,279.4,856.4z"/>
				</g>
				<g>
					<path class="st8" d="M373.8,919.1c3.7-5.9,3.2-12.8-1-15.4l-89.5-55.9c-4.2-2.6-10.6,0-14.3,5.8l-7,11.1
						c-0.2,0.3-0.4,0.7-0.6,1c-0.2,0.2-0.3,0.4-0.4,0.6c-8.1,12.9,8.9,38,37.8,56.1c28.9,18.1,58.9,22.3,67,9.4
						c0.1-0.2,0.2-0.4,0.4-0.7c0.2-0.3,0.4-0.6,0.6-1L373.8,919.1z"/>
					<path class="st10" d="M374.8,917.5c-8.1,12.9-38.1,8.7-67-9.4c-28.9-18.1-45.9-43.2-37.8-56.1c8.1-12.9,38.1-8.7,67,9.4
						C365.9,879.5,382.8,904.6,374.8,917.5z"/>
				</g>
			</g>
			<g>
				<path class="st8" d="M267.7,832.6c0-7.2-4.2-13-9.4-13H149c-5.2,0-9.4,5.8-9.4,13v13.6c0,0.4,0,0.8,0,1.2c0,0.3,0,0.5,0,0.8
					c0,15.8,28.7,28.5,64,28.5c35.4,0,64-12.8,64-28.5c0-0.3,0-0.5,0-0.8c0-0.4,0-0.8,0-1.2V832.6z"/>
				<path class="st9" d="M267.7,830.6c0,15.8-28.7,28.5-64,28.5c-35.4,0-64-12.8-64-28.5c0-15.8,28.7-28.5,64-28.5
					C239.1,802.1,267.7,814.9,267.7,830.6z"/>
			</g>
			<g>
				<path class="st8" d="M510,898.7c0-7.2-4.2-13-9.4-13H391.3c-5.2,0-9.4,5.8-9.4,13v13.6c0,0.4,0,0.8,0,1.2c0,0.3,0,0.5,0,0.8
					c0,15.8,28.7,28.5,64,28.5c35.4,0,64-12.8,64-28.5c0-0.3,0-0.5,0-0.8c0-0.4,0-0.8,0-1.2V898.7z"/>
				<path class="st9" d="M510,896.7c0,15.8-28.7,28.5-64,28.5c-35.4,0-64-12.8-64-28.5c0-15.8,28.7-28.5,64-28.5
					C481.4,868.2,510,881,510,896.7z"/>
			</g>
		</g>
		<g>
			<path class="st8" d="M1050.4,909.9c0-7.2-4.2-13-9.4-13H931.7c-5.2,0-9.4,5.8-9.4,13v13.6c0,0.4,0,0.8,0,1.2c0,0.3,0,0.5,0,0.8
				c0,15.8,28.7,28.5,64,28.5c35.4,0,64-12.8,64-28.5c0-0.3,0-0.5,0-0.8c0-0.4,0-0.8,0-1.2V909.9z"/>
			<path class="st9" d="M1050.4,907.9c0,15.8-28.7,28.5-64,28.5c-35.4,0-64-12.8-64-28.5c0-15.8,28.7-28.5,64-28.5
				C1021.7,879.4,1050.4,892.2,1050.4,907.9z"/>
		</g>
		<g>
			<path class="st8" d="M1029.9,884.4c0-7.2-4.2-13-9.4-13H911.2c-5.2,0-9.4,5.8-9.4,13V898c0,0.4,0,0.8,0,1.2c0,0.3,0,0.5,0,0.8
				c0,15.8,28.7,28.5,64,28.5c35.4,0,64-12.8,64-28.5c0-0.3,0-0.5,0-0.8c0-0.4,0-0.8,0-1.2V884.4z"/>
			<path class="st9" d="M1029.9,882.4c0,15.8-28.7,28.5-64,28.5c-35.4,0-64-12.8-64-28.5c0-15.8,28.7-28.5,64-28.5
				C1001.3,853.9,1029.9,866.7,1029.9,882.4z"/>
		</g>
		<g>
			<path class="st8" d="M1050,857.4c0-7.2-4.2-13-9.4-13H931.3c-5.2,0-9.4,5.8-9.4,13V871c0,0.4,0,0.8,0,1.2c0,0.3,0,0.5,0,0.8
				c0,15.8,28.7,28.5,64,28.5c35.4,0,64-12.8,64-28.5c0-0.3,0-0.5,0-0.8c0-0.4,0-0.8,0-1.2V857.4z"/>
			<path class="st9" d="M1050,855.4c0,15.8-28.7,28.5-64,28.5c-35.4,0-64-12.8-64-28.5c0-15.8,28.7-28.5,64-28.5
				C1021.3,826.9,1050,839.7,1050,855.4z"/>
		</g>
		<g>
			<path class="st8" d="M884.6,918.7c0-7.2-4.2-13-9.4-13H765.9c-5.2,0-9.4,5.8-9.4,13v13.6c0,0.4,0,0.8,0,1.2c0,0.3,0,0.5,0,0.8
				c0,15.8,28.7,28.5,64,28.5c35.4,0,64-12.8,64-28.5c0-0.3,0-0.5,0-0.8c0-0.4,0-0.8,0-1.2V918.7z"/>
			<path class="st9" d="M884.6,916.7c0,15.8-28.7,28.5-64,28.5c-35.4,0-64-12.8-64-28.5c0-15.8,28.7-28.5,64-28.5
				C856,888.2,884.6,901,884.6,916.7z"/>
		</g>
		<g>
			<path class="st8" d="M944.2,838.4c-4-6-10.7-8.5-15-5.6l-91.1,60.4c-4.3,2.9-4.6,10-0.6,16l7.5,11.3c0.2,0.3,0.5,0.7,0.7,1
				c0.1,0.2,0.2,0.4,0.4,0.7c8.7,13.1,39.7,7.9,69.1-11.6c29.5-19.6,46.3-46,37.6-59.2c-0.1-0.2-0.3-0.4-0.5-0.6
				c-0.2-0.3-0.4-0.7-0.6-1L944.2,838.4z"/>
			<path class="st9" d="M943.1,836.7c8.7,13.1-8.1,39.6-37.6,59.2c-29.5,19.5-60.4,24.7-69.1,11.6c-8.7-13.1,8.1-39.6,37.6-59.2
				C903.5,828.8,934.4,823.6,943.1,836.7z"/>
		</g>
	</g>
</g>
</svg>
