<?xml version="1.0" encoding="utf-8"?>
<!-- Generator: Adobe Illustrator 22.1.0, SVG Export Plug-In . SVG Version: 6.00 Build 0)  -->
<svg version="1.1" id="Business_People" xmlns="http://www.w3.org/2000/svg" xmlns:xlink="http://www.w3.org/1999/xlink" x="0px"
	 y="0px" viewBox="0 0 1320.1 1058.3" style="enable-background:new 0 0 1320.1 1058.3;" xml:space="preserve">
<style type="text/css">
	.st0{fill:#EDEDED;}
	.st1{fill:#B2B2B2;}
	.st2{fill:#F6F6F6;}
	.st3{fill:#1E14A5;}
	.st4{fill:#DADADA;}
	.st5{fill:#A7A9AC;}
	.st6{fill:#2C373B;}
	.st7{fill:#D1D3D4;}
	.st8{fill:#F5F5F5;}
	.st9{fill:#231F20;}
	.st10{fill:#352F2D;}
	.st11{fill:#8E89D2;}
	.st12{fill:#BCBEC0;}
</style>
<g>
	<rect x="437.4" y="99.1" class="st0" width="574.4" height="718.6"/>
	<g>
		<rect x="678.1" y="172.8" class="st1" width="297.5" height="20.1"/>
		<rect x="678.1" y="206.4" class="st1" width="297.5" height="34.5"/>
		<rect x="678.1" y="256.6" class="st1" width="297.5" height="8.8"/>
		<rect x="678.1" y="294" class="st1" width="297.5" height="8.8"/>
		<rect x="678.1" y="275.2" class="st1" width="297.5" height="8.8"/>
	</g>
	<g>
		<g>
			<polygon class="st2" points="412,128.9 412,847.5 986.5,847.5 986.5,348.1 678.8,128.9 			"/>
			<rect x="472.4" y="380.8" class="st1" width="323.4" height="20"/>
			<rect x="472.4" y="225.6" class="st3" width="136.8" height="122.5"/>
			<rect x="633.7" y="307.7" class="st1" width="181.8" height="13.3"/>
			<rect x="633.7" y="330.7" class="st1" width="181.8" height="13.3"/>
			<rect x="633.7" y="225.6" class="st1" width="167.2" height="69.9"/>
			<rect x="472.4" y="414.5" class="st1" width="443.7" height="16.3"/>
			<path class="st4" d="M986.5,348.1L678.8,128.9l-5.5,209.2c0,0,51.3-27.6,153.9-27.6C894.5,310.5,986.5,348.1,986.5,348.1z"/>
			<rect x="472.4" y="442.1" class="st1" width="443.7" height="16.3"/>
			<rect x="472.4" y="471.2" class="st1" width="443.7" height="16.3"/>
			<rect x="472.4" y="500.3" class="st1" width="443.7" height="16.3"/>
			<rect x="472.4" y="527.9" class="st1" width="443.7" height="16.3"/>
			<rect x="472.4" y="555.5" class="st1" width="443.7" height="16.3"/>
			<rect x="472.4" y="584.6" class="st1" width="443.7" height="16.3"/>
			<rect x="472.4" y="613.7" class="st1" width="443.7" height="16.3"/>
			<rect x="472.4" y="645.2" class="st5" width="200.9" height="61.3"/>
			<rect x="717.4" y="645.2" class="st5" width="200.9" height="61.3"/>
			<rect x="472.4" y="783.2" class="st1" width="200.9" height="13.6"/>
			<rect x="717.4" y="783.2" class="st1" width="200.9" height="13.6"/>
		</g>
		<g>
			<polygon class="st6" points="745,914.8 683.9,860.9 622.8,914.8 622.8,747 745,747 			"/>
			<g>
				<polygon class="st3" points="771.8,734.4 762.7,743.2 769.7,753.8 758.8,760.3 763.2,772.2 751.2,776.1 752.8,788.7 
					740.2,789.9 739,802.5 726.5,800.8 722.6,812.8 710.7,808.5 704.1,819.3 693.6,812.3 684.8,821.5 676,812.3 665.4,819.3 
					658.9,808.5 647,812.8 643.1,800.8 630.5,802.5 629.3,789.9 616.7,788.7 618.4,776.1 606.3,772.2 610.7,760.3 599.9,753.8 
					606.8,743.2 597.7,734.4 606.8,725.6 599.9,715 610.7,708.5 606.3,696.6 618.4,692.7 616.7,680.1 629.3,679 630.5,666.4 
					643.1,668 647,656 658.9,660.4 665.4,649.5 676,656.5 684.8,647.4 693.6,656.5 704.1,649.5 710.7,660.4 722.6,656 726.5,668 
					739.1,666.4 740.2,679 752.8,680.1 751.2,692.7 763.2,696.6 758.8,708.5 769.7,715 762.7,725.6 				"/>
			</g>
			<path class="st7" d="M748.6,734.4c0,35.2-28.6,63.8-63.8,63.8c-35.2,0-63.8-28.6-63.8-63.8c0-35.2,28.6-63.8,63.8-63.8
				C720,670.6,748.6,699.2,748.6,734.4z"/>
		</g>
	</g>
</g>
<path class="st8" d="M738.6,723.5c-2.2,0.2-1-24.8-5.6-29.4c-4.6-4.6-29.6-3.4-29.4-5.6c0.2-2,23.5-3.6,28.3-8.3
	c4.7-4.7,6.4-28.1,8.5-28.2c2.2-0.2,1.9,24,6.4,28.4c4.5,4.5,28.5,4.1,28.4,6.2c-0.1,2.1-24,3.2-28.9,8
	C741.6,699.5,740.6,723.3,738.6,723.5z"/>
<path class="st9" d="M190.3,357.1c8.2-6.2,9.9-17.9,3.7-26.2l-29.8-39.4c-6.2-8.2-17.9-9.9-26.2-3.7l-10.2,7.7
	c-8.2,6.2-9.9,17.9-3.7,26.2l29.8,39.5c6.2,8.2,17.9,9.9,26.2,3.7L190.3,357.1z"/>
<path class="st3" d="M394,692.2c-1.7-1.1-3.3-2.6-4.6-4.3L173.9,402.2l-12.6-16.8L150,370.6c-0.2-0.3-0.4-0.6-0.6-0.9
	c-5.4-8.2-3.7-19.3,4.3-25.2l24.2-18.3c8.2-6.2,19.9-4.6,26.2,3.7l11.2,14.8l12.7,16.8l215.6,285.7c1.4,1.8,2.4,3.8,3,5.9
	c0.4,0.8,0.7,1.7,1.1,2.6c8.6,21.8,2.5,47.3-1.9,50.6C440.2,710.3,412.5,708.4,394,692.2z"/>
<path class="st10" d="M458.2,724.7c2.7-2.1,3.3-6,1.2-8.7L440,690.2c-2.1-2.7-6-3.3-8.7-1.2l0,0c-2.7,2.1-3.3,6-1.2,8.7l19.5,25.8
	C451.6,726.2,455.4,726.8,458.2,724.7L458.2,724.7z"/>
<path class="st11" d="M445.7,706.2c-5.5,4.1-33.1,2.2-51.6-14c-1.7-1.1-3.3-2.6-4.6-4.3L173.9,402.2l-12.6-16.8L150,370.6
	c-0.2-0.3-0.4-0.6-0.6-0.9l298.1,285.9C456.1,677.3,450,702.9,445.7,706.2z"/>
<rect x="160.7" y="362.9" transform="matrix(0.7982 -0.6024 0.6024 0.7982 -185.6711 192.5566)" class="st12" width="67.7" height="21"/>
<path class="st12" d="M260.1,473c3.4-2.5,4-7.3,1.5-10.7l-82-108.7c-2.5-3.4-7.3-4-10.7-1.5l0,0c-3.4,2.5-4,7.3-1.5,10.7l82,108.7
	C251.9,474.9,256.7,475.5,260.1,473L260.1,473z"/>
</svg>
