<?xml version="1.0" encoding="utf-8"?>
<!-- Generator: Adobe Illustrator 22.1.0, SVG Export Plug-In . SVG Version: 6.00 Build 0)  -->
<svg version="1.1" id="Business_People" xmlns="http://www.w3.org/2000/svg" xmlns:xlink="http://www.w3.org/1999/xlink" x="0px"
	 y="0px" viewBox="0 0 1320.1 1058.3" style="enable-background:new 0 0 1320.1 1058.3;" xml:space="preserve">
<style type="text/css">
	.st0{fill:#1E14A5;}
	.st1{fill:#FFFFFF;}
	.st2{fill:#939598;}
	.st3{fill:#8E89D2;}
	.st4{fill:#3AD3C3;}
	.st5{opacity:0.5;fill:#FFFFFF;}
	.st6{fill:#E6E7E8;}
	.st7{opacity:0.1;}
	.st8{opacity:0.2;}
</style>
<g>
	<g id="Board">
		<path class="st0" d="M1143.3,720.5c0,9.9-7.8,18-17.3,18H140.6c-9.6,0-17.3-8-17.3-18V136.3c0-9.9,7.8-18,17.3-18h985.3
			c9.6,0,17.3,8,17.3,18V720.5z"/>
		<path class="st1" d="M1101.2,689.8c0,8.8-7.2,16-16,16h-909c-8.8,0-16-7.2-16-16V169.1c0-8.8,7.2-16,16-16h909c8.8,0,16,7.2,16,16
			V689.8z"/>
	</g>
	<rect x="258.9" y="645.7" class="st2" width="746.2" height="9.4"/>
	<g>
		<rect x="406.3" y="207" class="st0" width="55.6" height="428.9"/>
		<rect x="476.1" y="270.3" class="st0" width="55.6" height="365.6"/>
		<rect x="543.7" y="354" class="st0" width="55.6" height="281.9"/>
		<rect x="611.4" y="396.8" class="st3" width="55.6" height="239.1"/>
		<rect x="679" y="441.8" class="st3" width="55.6" height="194.1"/>
		<rect x="746.6" y="361.3" class="st0" width="55.6" height="274.6"/>
		<rect x="814.3" y="290.2" class="st0" width="55.6" height="345.7"/>
		<rect x="881.9" y="229.5" class="st0" width="55.6" height="406.4"/>
		<rect x="949.5" y="178.2" class="st0" width="55.6" height="457.7"/>
		<rect x="332" y="354" class="st3" width="55.6" height="281.9"/>
		<rect x="258.9" y="425.2" class="st3" width="55.6" height="210.8"/>
	</g>
	<polygon class="st4" points="878.4,243.9 908.6,264.7 701.4,469.8 463.9,239.5 452,254.6 452,254.6 272.2,483.1 285.8,493.8 
		465,267.1 701.6,496 924.9,273.5 961,297.7 968.3,212 	"/>
	<path class="st3" d="M1216.8,872.1c9.5,20,1,43.8-18.9,53.3l0,0c-20,9.5-43.8,1-53.3-18.9L1050.5,709c-9.5-20-1-43.8,18.9-53.3l0,0
		c20-9.5,43.8-1,53.3,18.9L1216.8,872.1z"/>
	<path class="st5" d="M1183,839c5.6,11.8,0.6,26-11.2,31.7l0,0c-11.8,5.7-26,0.6-31.7-11.2l-55.9-117.3c-5.6-11.8-0.6-26,11.2-31.7
		l0,0c11.8-5.6,26-0.6,31.7,11.2L1183,839z"/>
	<path class="st6" d="M1103,392.3c34.1,71.6,3.7,157.4-67.9,191.5c-71.6,34.1-157.3,3.7-191.5-67.9c-34.1-71.6-3.7-157.4,67.9-191.5
		C983.2,290.2,1068.9,320.6,1103,392.3z"/>
	<path class="st7" d="M1103.1,655.4c-10.4-4.7-22.6-5-33.7,0.3c-9.7,4.6-16.6,12.6-20.1,21.8c7.4,4,20.1,3.3,32.6-2.7
		C1092.2,669.9,1099.9,662.5,1103.1,655.4z"/>
	<polygon class="st0" points="895.4,308.1 895.4,618 1046.6,616.2 1046.6,308.1 	"/>
	<path class="st2" d="M1139.2,375.1c-43.6-91.6-153.2-130.5-244.8-86.8c-91.6,43.6-130.5,153.2-86.8,244.8
		c40.4,84.8,137.4,124.4,224.3,95.1l20.5,43c0,0,32.2,12.6,43.8-18l-21.7-45.6C1149.8,557.8,1179.1,458.9,1139.2,375.1z
		 M1035.1,583.7c-71.6,34.1-157.3,3.7-191.5-67.9c-34.1-71.6-3.7-157.4,67.9-191.5c71.6-34.1,157.4-3.7,191.5,67.9
		C1137.1,463.9,1106.7,549.6,1035.1,583.7z"/>
	<path class="st8" d="M981.8,309.8c-23.5-1.4-47.7,2.9-70.4,13.7c-67.9,32.4-98.8,111.2-72.6,180.3
		C829,367.4,925.3,323.7,981.8,309.8z"/>
</g>
</svg>
