<?xml version="1.0" encoding="utf-8"?>
<!-- Generator: Adobe Illustrator 22.1.0, SVG Export Plug-In . SVG Version: 6.00 Build 0)  -->
<svg version="1.1" id="Business_People" xmlns="http://www.w3.org/2000/svg" xmlns:xlink="http://www.w3.org/1999/xlink" x="0px"
	 y="0px" viewBox="0 0 1320.1 1058.3" style="enable-background:new 0 0 1320.1 1058.3;" xml:space="preserve">
<style type="text/css">
	.st0{fill:#E6E7E8;}
	.st1{fill:#1E14A5;}
	.st2{fill:#414042;}
	.st3{fill:#3C3C3B;}
	.st4{fill:#B1B1B1;}
	.st5{fill:#ECECEC;}
	.st6{fill:#F1F2F2;}
	.st7{fill:#BCBEC0;}
	.st8{fill:#3AD3C3;}
	.st9{fill:#6D6E71;}
	.st10{fill:#CCFEF8;}
	.st11{fill:#8E89D2;}
	.st12{fill:#FFFFFF;}
</style>
<g id="Clock_1_">
	<g>
		<g>
			<path class="st0" d="M1096.5,373c0,102.2-82.9,185.1-185.1,185.1c-102.2,0-185.1-82.9-185.1-185.1
				c0-102.2,82.9-185.1,185.1-185.1C1013.7,187.8,1096.5,270.7,1096.5,373z"/>
			<path class="st1" d="M911.4,569.1c-108.1,0-196.1-88-196.1-196.1c0-108.1,88-196.1,196.1-196.1c108.1,0,196.1,88,196.1,196.1
				C1107.5,481.1,1019.5,569.1,911.4,569.1z M911.4,198.8c-96,0-174.2,78.1-174.2,174.2c0,96,78.1,174.2,174.2,174.2
				c96,0,174.2-78.1,174.2-174.2C1085.6,276.9,1007.4,198.8,911.4,198.8z"/>
		</g>
		<path class="st2" d="M994.7,363H925v-89.9c0-6.6-6.1-12-13.5-12c-7.5,0-13.5,5.4-13.5,12v104.9c0,1.8,0.4,3.4,1.2,4.9
			c1.7,4.2,5,7.1,8.7,7.1h86.9c7,0,11.9-6.1,11.9-13.5C1006.7,370.3,1001.8,363,994.7,363z"/>
		<rect x="903.6" y="210.1" class="st3" width="16.2" height="27.8"/>
		<rect x="1046.9" y="364.9" class="st3" width="27.8" height="16.2"/>
		<rect x="748" y="364.9" class="st3" width="27.8" height="16.2"/>
		<rect x="903.3" y="507" class="st3" width="16.2" height="27.8"/>
	</g>
	<path class="st3" d="M932.3,373c0,10.3-8.4,18.7-18.7,18.7c-10.3,0-18.7-8.4-18.7-18.7c0-10.3,8.4-18.7,18.7-18.7
		C924,354.3,932.3,362.7,932.3,373z"/>
</g>
<g>
	<polygon class="st4" points="356.8,263.7 356.8,285.1 366.9,277.9 	"/>
	<polygon class="st4" points="334,261.7 334,287.1 320.7,278.2 	"/>
	<polygon class="st4" points="412,260.9 412,278 397,273.6 	"/>
	<path class="st5" d="M596.2,605.3C576,446.3,510.3,390,441.7,373.5c0.7-9.4,2-25.4,3.4-35c2.4-16.2,12.4-64.1,12.4-64.1
		s-4.7-9.6-14-5c-26.4,13.2-50.1,5.8-33.7-5.4c10.8-7.4-19.8-9.9-45.3-5.2c-25.4,4.7,24.2,21.8-27.5,22.9
		c-31.2,0.7,16.9-21.5-12.8-23.3c-26-1.6-39.1,14.1-39.1,14.1s31.5,47.7,36.1,66.4c3.6,14.7,5.6,31.5,6,35
		c-62.3,15.6-121.2,67.3-146.1,229.4C148.7,814.2,118.8,888.6,388.3,889C674.7,889.4,623.4,818.6,596.2,605.3z"/>
</g>
<path class="st2" d="M383.8,383.6c-32.9,0-58.5-15-60-32l0.4,17.7h0c0.7,17.1,27.1,30.8,59.5,30.8s58.8-13.7,59.5-30.8h0l0.2-17.4
	C443.5,369.3,416.7,383.6,383.8,383.6z"/>
<path class="st4" d="M312.9,401.1c0,0,27.6-5.9,26.4,11.8c-1.2,17.7-53.9,49.9-53.9,49.9S360.3,411.8,312.9,401.1z"/>
<path class="st4" d="M442,407.1c0,0,53.2,25.3,65.6,64.7c0,0-22.1-37.7-80.6-59.4L442,407.1z"/>
<path class="st4" d="M365.5,410.9c0,0-18.6,68-54.4,88.6c0,0,32-29.7,40.5-91.5L365.5,410.9z"/>
<path class="st1" d="M502.8,661.3c0,62.7-50.8,113.5-113.5,113.5c-62.7,0-113.5-50.8-113.5-113.5c0-62.7,50.8-113.5,113.5-113.5
	C452,547.8,502.8,598.6,502.8,661.3z"/>
<path class="st6" d="M389.3,763.7c-56.4,0-102.3-45.9-102.3-102.3c0-56.4,45.9-102.3,102.3-102.3c56.4,0,102.3,45.9,102.3,102.3
	C491.6,717.7,445.7,763.7,389.3,763.7z M389.3,564.9c-53.2,0-96.5,43.3-96.5,96.5c0,53.2,43.3,96.5,96.5,96.5
	c53.2,0,96.5-43.3,96.5-96.5C485.8,608.1,442.5,564.9,389.3,564.9z"/>
<g id="Sand_Clock">
	<path class="st7" d="M694.3,618.4c22.7-20.9,47.2-52.7,65.4-96.4c4.5-10.8,8.7-24.5,12.5-39.5c4.8-18.9,9-39.9,12.6-59.7
		c0.9-4.8,1.7-9.6,2.5-14.2c1.5-8.8,2.8-17.1,3.9-24.6c3.4-22.5,5.3-38.1,5.3-38.1c0-11.7-10.7-21.2-23.8-21.2H510.5
		c-13.2,0-23.8,9.5-23.8,21.2c0,0,1.8,111.8,27.5,176.1c16.6,41.5,42.4,74.4,67.3,96.4c-24.9,22-50.7,54.9-67.3,96.4
		c-8,20.1-13.7,44.9-17.8,69.5c-3.2,19.3-5.3,38.4-6.8,55c-2.6,29.8-2.9,51.6-2.9,51.6c0,11.7,10.7,21.2,23.8,21.2h262.1
		c13.2,0,23.8-9.5,23.8-21.2c0,0-14.9-123.6-36.7-176.1C741.5,671.1,717,639.3,694.3,618.4z"/>
	<path class="st8" d="M832.8,323.3c0,11.7-9.5,21.2-21.2,21.2h-340c-11.7,0-21.2-9.5-21.2-21.2v-25.6c0-11.7,9.5-21.2,21.2-21.2h340
		c11.7,0,21.2,9.5,21.2,21.2V323.3z"/>
	<path class="st8" d="M832.8,924.9c0,11.7-9.5,21.2-21.2,21.2h-340c-11.7,0-21.2-9.5-21.2-21.2v-25.6c0-11.7,9.5-21.2,21.2-21.2h340
		c11.7,0,21.2,9.5,21.2,21.2V924.9z"/>
	<path class="st9" d="M525.2,466c0,0,15.9,49.5,49.2,95.4c23.8,32.9,43.9,44.6,72.1,39.3c28.3-5.3,72.8-59.3,81.3-102.3
		c0,0-13-9.2-36.5,0c-27.3,10.7-34.1,26.7-49.8,22.4c-40.3-11.2-43-59.7-76-63.6C540,454.1,525.2,466,525.2,466z"/>
	<path class="st9" d="M641.5,478.6c3.8,8.8,8.1,27.1,0.7,30.4c-7.4,3.3-23.8-9.8-27.6-18.5c-3.9-8.8-1-18.5,6.5-21.8
		C628.5,465.3,637.6,469.8,641.5,478.6z"/>
	<path class="st10" d="M661.2,521c-8.4,6.7-9.8,18.9-3.1,27.3c6.7,8.4,18.9,9.8,27.3,3.1l86.7-69c4.8-18.9,9-39.9,12.6-59.7
		L661.2,521z"/>
	<path class="st10" d="M696.7,469.7c2.9,3.6,9.3,3.4,14.3-0.6l76.1-60.5c1.5-8.8,2.8-17.1,3.9-24.6l-90.6,72
		C695.6,459.9,693.8,466.1,696.7,469.7z"/>
	<path class="st10" d="M637.3,697c-6.7-8.4-18.9-9.8-27.3-3.1l-113.7,90.4c-3.2,19.3-5.3,38.4-6.8,55l144.6-115
		C642.6,717.6,644,705.4,637.3,697z"/>
	<path class="st9" d="M661.5,645.5c0,9.1-5.9,11-13.1,11c-7.2,0-13.1-1.9-13.1-11c0-9.1,5.9-23.9,13.1-23.9
		C655.7,621.6,661.5,636.5,661.5,645.5z"/>
	<path class="st9" d="M543.5,853.5h202.6c0,0-10-67.8-28.9-74.8c-18.8-7-31.8,22.5-55.7,22.5c-23.8,0-55-11.8-73.3-4.7
		C570,803.4,546.4,831,543.5,853.5z"/>
	<path class="st9" d="M681.3,668.8c0,5.7-4.4,10.4-9.9,10.4c-5.5,0-9.9-4.6-9.9-10.4c0-5.7,4.4-15.5,9.9-15.5
		C676.9,653.3,681.3,663.1,681.3,668.8z"/>
</g>
<g>
	<path class="st1" d="M455.6,927c0-7.2-4.2-13-9.4-13H336.9c-5.2,0-9.4,5.8-9.4,13v13.6c0,0.4,0,0.8,0,1.2c0,0.3,0,0.5,0,0.8
		c0,15.8,28.7,28.5,64,28.5c35.4,0,64-12.8,64-28.5c0-0.3,0-0.5,0-0.8c0-0.4,0-0.8,0-1.2V927z"/>
	<path class="st11" d="M455.6,925c0,15.8-28.7,28.5-64,28.5c-35.4,0-64-12.8-64-28.5c0-15.8,28.7-28.5,64-28.5
		C427,896.5,455.6,909.2,455.6,925z"/>
</g>
<g>
	<path class="st1" d="M443.4,895.9c0-7.2-4.2-13-9.4-13H324.7c-5.2,0-9.4,5.8-9.4,13v13.6c0,0.4,0,0.8,0,1.2c0,0.3,0,0.5,0,0.8
		c0,15.8,28.7,28.5,64,28.5c35.4,0,64-12.8,64-28.5c0-0.3,0-0.5,0-0.8c0-0.4,0-0.8,0-1.2V895.9z"/>
	<path class="st11" d="M443.4,893.9c0,15.8-28.7,28.5-64,28.5c-35.4,0-64-12.8-64-28.5c0-15.8,28.7-28.5,64-28.5
		C414.8,865.4,443.4,878.1,443.4,893.9z"/>
</g>
<g>
	<path class="st1" d="M457.2,868.7c0-7.2-4.2-13-9.4-13H338.5c-5.2,0-9.4,5.8-9.4,13v13.6c0,0.4,0,0.8,0,1.2c0,0.3,0,0.5,0,0.8
		c0,15.8,28.7,28.5,64,28.5c35.4,0,64-12.8,64-28.5c0-0.3,0-0.5,0-0.8c0-0.4,0-0.8,0-1.2V868.7z"/>
	<path class="st11" d="M457.2,866.8c0,15.8-28.7,28.5-64,28.5c-35.4,0-64-12.8-64-28.5c0-15.8,28.7-28.5,64-28.5
		C428.5,838.2,457.2,851,457.2,866.8z"/>
</g>
<g>
	<path class="st1" d="M971.2,946.7c0-7.2-4.2-13-9.4-13H852.5c-5.2,0-9.4,5.8-9.4,13v13.6c0,0.4,0,0.8,0,1.2c0,0.3,0,0.5,0,0.8
		c0,15.8,28.7,28.5,64,28.5c35.4,0,64-12.8,64-28.5c0-0.3,0-0.5,0-0.8c0-0.4,0-0.8,0-1.2V946.7z"/>
	<path class="st11" d="M971.2,944.8c0,15.8-28.7,28.5-64,28.5c-35.4,0-64-12.8-64-28.5c0-15.8,28.7-28.5,64-28.5
		C942.6,916.2,971.2,929,971.2,944.8z"/>
</g>
<g>
	<path class="st1" d="M962.8,921.2c0-7.2-4.2-13-9.4-13H844.1c-5.2,0-9.4,5.8-9.4,13v13.6c0,0.4,0,0.8,0,1.2c0,0.3,0,0.5,0,0.8
		c0,15.8,28.7,28.5,64,28.5c35.4,0,64-12.8,64-28.5c0-0.3,0-0.5,0-0.8c0-0.4,0-0.8,0-1.2V921.2z"/>
	<path class="st11" d="M962.8,919.3c0,15.8-28.7,28.5-64,28.5c-35.4,0-64-12.8-64-28.5c0-15.8,28.7-28.5,64-28.5
		C934.1,890.7,962.8,903.5,962.8,919.3z"/>
</g>
<g>
	<path class="st1" d="M975.4,899.3c0-7.2-4.2-13-9.4-13H856.8c-5.2,0-9.4,5.8-9.4,13v13.6c0,0.4,0,0.8,0,1.2c0,0.3,0,0.5,0,0.8
		c0,15.8,28.7,28.5,64,28.5c35.4,0,64-12.8,64-28.5c0-0.3,0-0.5,0-0.8c0-0.4,0-0.8,0-1.2V899.3z"/>
	<path class="st11" d="M975.4,897.4c0,15.8-28.7,28.5-64,28.5c-35.4,0-64-12.8-64-28.5c0-15.8,28.7-28.5,64-28.5
		C946.8,868.8,975.4,881.6,975.4,897.4z"/>
</g>
<g>
	<path class="st1" d="M962.8,871.3c0-7.2-4.2-13-9.4-13H844.1c-5.2,0-9.4,5.8-9.4,13v13.6c0,0.4,0,0.8,0,1.2c0,0.3,0,0.5,0,0.8
		c0,15.8,28.7,28.5,64,28.5c35.4,0,64-12.8,64-28.5c0-0.3,0-0.5,0-0.8c0-0.4,0-0.8,0-1.2V871.3z"/>
	<path class="st11" d="M962.8,869.3c0,15.8-28.7,28.5-64,28.5c-35.4,0-64-12.8-64-28.5c0-15.8,28.7-28.5,64-28.5
		C934.1,840.8,962.8,853.6,962.8,869.3z"/>
</g>
<g>
	<path class="st1" d="M1074.3,953.4c3.7-6.1,3.2-13.3-1.3-15.9l-93.4-56.9c-4.4-2.7-11,0.1-14.7,6.2l-7.1,11.6
		c-0.2,0.3-0.4,0.7-0.6,1c-0.1,0.2-0.3,0.4-0.4,0.6c-8.2,13.5,9.6,39.3,39.9,57.7c30.2,18.4,61.3,22.4,69.5,8.9
		c0.1-0.2,0.2-0.5,0.4-0.7c0.2-0.3,0.5-0.7,0.7-1L1074.3,953.4z"/>
	<path class="st11" d="M1075.3,951.7c-8.2,13.5-39.3,9.5-69.5-8.9c-30.2-18.4-48-44.2-39.8-57.7c8.2-13.5,39.3-9.5,69.5,8.9
		C1065.7,912.4,1083.5,938.2,1075.3,951.7z"/>
</g>
<g>
	<path class="st1" d="M327.6,935.7c0-7.2-4.2-13-9.4-13H208.8c-5.2,0-9.4,5.8-9.4,13v13.6c0,0.4,0,0.8,0,1.2c0,0.3,0,0.5,0,0.8
		c0,15.8,28.7,28.5,64,28.5c35.4,0,64-12.8,64-28.5c0-0.3,0-0.5,0-0.8c0-0.4,0-0.8,0-1.2V935.7z"/>
	<path class="st11" d="M327.6,933.8c0,15.8-28.7,28.5-64,28.5c-35.4,0-64-12.8-64-28.5c0-15.8,28.7-28.5,64-28.5
		C298.9,905.2,327.6,918,327.6,933.8z"/>
</g>
<g>
	<path class="st1" d="M774.3,958.5c0-7.2-4.2-13-9.4-13H655.6c-5.2,0-9.4,5.8-9.4,13v13.6c0,0.4,0,0.8,0,1.2c0,0.3,0,0.5,0,0.8
		c0,15.8,28.7,28.5,64,28.5c35.4,0,64-12.8,64-28.5c0-0.3,0-0.5,0-0.8c0-0.4,0-0.8,0-1.2V958.5z"/>
	<path class="st11" d="M774.3,956.6c0,15.8-28.7,28.5-64,28.5c-35.4,0-64-12.8-64-28.5c0-15.8,28.7-28.5,64-28.5
		C745.6,928,774.3,940.8,774.3,956.6z"/>
</g>
<g>
	<path class="st1" d="M345.8,849.1c-4.8-5.3-11.8-6.7-15.7-3.2l-80.7,73.7c-3.8,3.5-3,10.6,1.8,15.9l9.2,10c0.3,0.3,0.6,0.6,0.8,0.9
		c0.2,0.2,0.3,0.4,0.5,0.6c10.6,11.6,40.4,1.7,66.5-22.1c26.1-23.8,38.7-52.6,28-64.3c-0.2-0.2-0.4-0.4-0.6-0.5
		c-0.2-0.3-0.5-0.6-0.8-0.9L345.8,849.1z"/>
	<path class="st11" d="M344.5,847.7c10.6,11.6-1.9,40.4-28,64.3c-26.1,23.9-55.9,33.8-66.5,22.1c-10.6-11.6,1.9-40.4,28-64.3
		C304,846,333.8,836.1,344.5,847.7z"/>
</g>
<g>
	<path class="st1" d="M821.1,930c0-7.2-4.2-13-9.4-13H702.4c-5.2,0-9.4,5.8-9.4,13v13.6c0,0.4,0,0.8,0,1.2c0,0.3,0,0.5,0,0.8
		c0,15.8,28.7,28.5,64,28.5c35.4,0,64-12.8,64-28.5c0-0.3,0-0.5,0-0.8c0-0.4,0-0.8,0-1.2V930z"/>
	<ellipse class="st11" cx="757" cy="928" rx="64" ry="28.5"/>
</g>
<path class="st1" d="M391.5,171.5c0,29-23.5,52.6-52.6,52.6c-29,0-52.6-23.5-52.6-52.6c0-29,23.5-52.6,52.6-52.6
	C368,118.9,391.5,142.5,391.5,171.5z"/>
<path class="st12" d="M339,218.8c-26.1,0-47.4-21.2-47.4-47.4c0-26.1,21.2-47.4,47.4-47.4c26.1,0,47.4,21.2,47.4,47.4
	C386.3,197.6,365.1,218.8,339,218.8z M339,126.8c-24.6,0-44.6,20-44.6,44.6c0,24.6,20,44.6,44.6,44.6c24.6,0,44.6-20,44.6-44.6
	C383.6,146.9,363.6,126.8,339,126.8z"/>
<path class="st1" d="M579.2,224c0,50.3-40.8,91.1-91.1,91.1c-50.3,0-91.1-40.8-91.1-91.1c0-50.3,40.8-91.1,91.1-91.1
	C538.5,133,579.2,173.7,579.2,224z"/>
<path class="st12" d="M488.2,306.1c-45.3,0-82.1-36.8-82.1-82.1s36.8-82.1,82.1-82.1c45.3,0,82.1,36.8,82.1,82.1
	S533.4,306.1,488.2,306.1z M488.2,146.7c-42.7,0-77.4,34.7-77.4,77.4c0,42.7,34.7,77.4,77.4,77.4c42.6,0,77.4-34.7,77.4-77.4
	C565.5,181.4,530.8,146.7,488.2,146.7z"/>
</svg>
