<?xml version="1.0" encoding="utf-8"?>
<!-- Generator: Adobe Illustrator 22.1.0, SVG Export Plug-In . SVG Version: 6.00 Build 0)  -->
<svg version="1.1" id="Business_People" xmlns="http://www.w3.org/2000/svg" xmlns:xlink="http://www.w3.org/1999/xlink" x="0px"
	 y="0px" viewBox="0 0 1320.1 1058.3" style="enable-background:new 0 0 1320.1 1058.3;" xml:space="preserve">
<style type="text/css">
	.st0{fill:#A5A5A5;}
	.st1{opacity:0.3;fill:#FFFFFF;}
	.st2{fill:#CCCCCC;}
	.st3{fill:#1E14A5;}
	.st4{fill:#FFFFFF;}
	.st5{fill:#9AC900;}
	.st6{fill:#8E89D2;}
	.st7{fill:#3AD3C3;}
	.st8{fill:#0CC1B0;}
	.st9{fill:#E6E7E8;}
	.st10{fill:#2E3192;}
	.st11{opacity:0.2;fill:url(#SVGID_1_);}
</style>
<g id="Blooming_3_">
	<path class="st0" d="M814,759.5c-38.6-34.1-21-113.6-21-113.6h-57.5h-57.5c0,0,17.6,79.5-21.1,113.6
		c-38.6,34.1-83.7,34.1-83.7,34.1v19.2h162.3h162.3v-19.2C897.7,793.6,852.6,793.6,814,759.5z"/>
	<rect x="573.1" y="793.6" class="st1" width="324.6" height="19.2"/>
	<path class="st2" d="M1164.3,594.7c0,28.2-22.9,51.1-51.1,51.1H357.6c-28.2,0-51.1-22.9-51.1-51.1V177.1
		c0-28.2,22.9-51.1,51.1-51.1h755.7c28.2,0,51.1,22.9,51.1,51.1V594.7z"/>
	<path class="st3" d="M306.4,177.1v417.6c0,9.9,2.9,19.2,7.8,27h842.4c4.9-7.8,7.8-17.1,7.8-27V177.1c0-13.2-5.1-25.3-13.3-34.3
		H319.8C311.5,151.9,306.4,163.9,306.4,177.1z"/>
	<rect x="343.4" y="160.1" class="st4" width="784.1" height="443.9"/>
	<rect x="421.1" y="444.2" class="st5" width="83.7" height="159.8"/>
	<rect x="563.2" y="396" class="st3" width="83.7" height="208"/>
	<rect x="706.4" y="294.5" class="st6" width="83.7" height="309.4"/>
	<rect x="856.1" y="241.2" class="st7" width="83.7" height="362.7"/>
	<polygon class="st6" points="1082.5,604 998.8,604 998.8,179.8 1079.3,179.8 	"/>
	<g>
		<g>
			<polygon class="st3" points="399.2,508.3 391.4,498 634.8,315.5 895.6,288.3 1079.3,179.8 1085.8,190.8 899.7,300.8 639.7,327.9 
							"/>
		</g>
		<path class="st8" d="M416.2,503.1c0,11.6-9.4,20.9-20.9,20.9c-11.6,0-20.9-9.4-20.9-20.9c0-11.5,9.4-20.9,20.9-20.9
			C406.8,482.2,416.2,491.6,416.2,503.1z"/>
		<path class="st3" d="M658.1,321.7c0,11.5-9.4,20.9-20.9,20.9c-11.6,0-20.9-9.4-20.9-20.9c0-11.6,9.4-20.9,20.9-20.9
			C648.8,300.8,658.1,310.1,658.1,321.7z"/>
		<path class="st3" d="M918.6,294.5c0,11.5-9.4,20.9-20.9,20.9c-11.5,0-20.9-9.4-20.9-20.9c0-11.6,9.4-20.9,20.9-20.9
			C909.2,273.6,918.6,283,918.6,294.5z"/>
		<path class="st3" d="M1103.5,185.3c0,11.6-9.4,20.9-20.9,20.9c-11.5,0-20.9-9.4-20.9-20.9c0-11.6,9.4-20.9,20.9-20.9
			C1094.1,164.4,1103.5,173.7,1103.5,185.3z"/>
	</g>
</g>
<g id="Security_1_">
	<path class="st9" d="M390,369.5L155.8,470.6v250.8c0,0,13.8,174.6,234.2,271.6c220.3-97,234.2-271.6,234.2-271.6V470.6L390,369.5z"
		/>
	<path class="st10" d="M390,433.2l-186.3,80.5v199.5c0,0,11,139,186.3,216.1c175.3-77.1,186.3-216.1,186.3-216.1V513.6L390,433.2z"
		/>
	<radialGradient id="SVGID_1_" cx="507.0352" cy="681.23" r="235.4847" gradientUnits="userSpaceOnUse">
		<stop  offset="0.5744" style="stop-color:#130C0E"/>
		<stop  offset="0.7977" style="stop-color:#130C0E"/>
		<stop  offset="1" style="stop-color:#130C0E"/>
	</radialGradient>
	<path class="st11" d="M624.1,721.4V470.6L390,369.5V993C610.3,896,624.1,721.4,624.1,721.4z"/>
</g>
<g>
	<path class="st4" d="M430.9,592.5c-13.2-12.8-29.2-19.2-48.2-19.2c-21.2,0-39,8.1-53.3,24.2l17.9,20.3c9.1-11.4,20.5-17,34.1-17
		c10.9,0,20.1,3.6,27.8,10.6c5,4.6,8.3,10.2,10.1,16.9h-38.9v25H419c-1.7,6.1-4.8,11.4-9.2,15.7c-7.3,7.3-16.1,10.9-26.5,10.9
		c-14.2,0-25.8-5.6-34.8-16.8l-18.5,19.1c14.7,16.5,32,24.8,51.9,24.8c19.9,0,36.3-6.3,49.2-18.9c12.9-12.6,19.3-28.5,19.3-47.6
		C450.6,621.3,444,605.3,430.9,592.5z"/>
	<polygon class="st4" points="329.4,789.2 450.6,770.1 450.6,743.6 329.4,762.7 	"/>
</g>
</svg>
