<?xml version="1.0" encoding="utf-8"?>
<!-- Generator: Adobe Illustrator 22.1.0, SVG Export Plug-In . SVG Version: 6.00 Build 0)  -->
<svg version="1.1" id="Слой_1" xmlns="http://www.w3.org/2000/svg" xmlns:xlink="http://www.w3.org/1999/xlink" x="0px" y="0px"
	 viewBox="0 0 1000 1000" style="enable-background:new 0 0 1000 1000;" xml:space="preserve">
<style type="text/css">
	.st0{fill:#141EA5;stroke:url(#SVGID_1_);stroke-miterlimit:10;}
	.st1{fill:#FFFFFF;stroke:url(#SVGID_2_);stroke-miterlimit:10;}
	.st2{fill:#141EA5;stroke:url(#SVGID_3_);stroke-miterlimit:10;}
	.st3{fill:#FFFFFF;stroke:url(#SVGID_4_);stroke-miterlimit:10;}
	.st4{fill:#141EA5;stroke:url(#SVGID_5_);stroke-miterlimit:10;}
	.st5{fill:#FFFFFF;stroke:url(#SVGID_6_);stroke-miterlimit:10;}
	.st6{fill:#141EA5;stroke:url(#SVGID_7_);stroke-miterlimit:10;}
	.st7{fill:#FFFFFF;stroke:url(#SVGID_8_);stroke-miterlimit:10;}
	.st8{fill:#141EA5;stroke:url(#SVGID_9_);stroke-miterlimit:10;}
	.st9{fill:#FFFFFF;stroke:url(#SVGID_10_);stroke-miterlimit:10;}
	.st10{fill:#141EA5;stroke:url(#SVGID_11_);stroke-miterlimit:10;}
	.st11{fill:#FFFFFF;stroke:url(#SVGID_12_);stroke-miterlimit:10;}
	.st12{fill:#141EA5;stroke:url(#SVGID_13_);stroke-miterlimit:10;}
	.st13{fill:#FFFFFF;stroke:url(#SVGID_14_);stroke-miterlimit:10;}
	.st14{fill:#141EA5;stroke:url(#SVGID_15_);stroke-miterlimit:10;}
	.st15{fill:#FFFFFF;stroke:url(#SVGID_16_);stroke-miterlimit:10;}
	.st16{fill:#141EA5;stroke:url(#SVGID_17_);stroke-miterlimit:10;}
	.st17{fill:#FFFFFF;stroke:url(#SVGID_18_);stroke-miterlimit:10;}
	.st18{fill:#141EA5;stroke:url(#SVGID_19_);stroke-miterlimit:10;}
	.st19{fill:#FFFFFF;stroke:url(#SVGID_20_);stroke-miterlimit:10;}
	.st20{fill:#141EA5;stroke:url(#SVGID_21_);stroke-miterlimit:10;}
	.st21{fill:#FFFFFF;stroke:url(#SVGID_22_);stroke-miterlimit:10;}
	.st22{fill:#141EA5;stroke:url(#SVGID_23_);stroke-miterlimit:10;}
	.st23{fill:#FFFFFF;stroke:url(#SVGID_24_);stroke-miterlimit:10;}
	.st24{fill:#141EA5;stroke:url(#SVGID_25_);stroke-miterlimit:10;}
	.st25{fill:#FFFFFF;stroke:url(#SVGID_26_);stroke-miterlimit:10;}
	.st26{fill:#141EA5;stroke:url(#SVGID_27_);stroke-miterlimit:10;}
	.st27{fill:#FFFFFF;stroke:url(#SVGID_28_);stroke-miterlimit:10;}
	.st28{fill:#141EA5;stroke:url(#SVGID_29_);stroke-miterlimit:10;}
	.st29{fill:#FFFFFF;stroke:url(#SVGID_30_);stroke-miterlimit:10;}
	.st30{fill:#141EA5;stroke:url(#SVGID_31_);stroke-miterlimit:10;}
	.st31{fill:#FFFFFF;stroke:url(#SVGID_32_);stroke-miterlimit:10;}
	.st32{fill:#141EA5;stroke:url(#SVGID_33_);stroke-miterlimit:10;}
	.st33{fill:#FFFFFF;stroke:url(#SVGID_34_);stroke-miterlimit:10;}
</style>
<linearGradient id="SVGID_1_" gradientUnits="userSpaceOnUse" x1="512.3524" y1="500.0305" x2="697.1475" y2="500.0305">
	<stop  offset="0" style="stop-color:#1E14A5"/>
	<stop  offset="1" style="stop-color:#CCCCCC"/>
</linearGradient>
<path class="st0" d="M525.5,776.5c-3.5,0-6.8-2.1-8.2-5.5c-1.9-4.5,0.3-9.7,4.8-11.6l0,0c1.4-0.6,138.2-59.3,154.8-215.6
	c12.7-119.2-38.1-184.9-53.8-202c-11.3,0.6-47.6,0.8-69.7-20.5c-24.6-23.8-39.6-84.2-40.3-86.8c-0.7-3,0.1-6.1,2.2-8.3
	c2.1-2.2,5.2-3.2,8.2-2.5c2.6,0.5,63.5,13.5,88.1,37.4c20.9,20.2,22.9,53.9,22.9,67c16.4,17,73.9,87,60,217.7
	c-17.8,167-164.2,229.5-165.7,230.1C527.7,776.3,526.6,776.5,525.5,776.5z"/>
<linearGradient id="SVGID_2_" gradientUnits="userSpaceOnUse" x1="533.6527" y1="284.328" x2="617.1165" y2="284.328">
	<stop  offset="0" style="stop-color:#1E14A5"/>
	<stop  offset="1" style="stop-color:#CCCCCC"/>
</linearGradient>
<path class="st1" d="M534.4,244.6c6.3,20.4,17.8,50.8,31.3,63.9c13.4,12.9,36.6,15.7,50.7,15.7c0.1,0,0.1,0,0.2,0
	c-0.4-12.4-3.1-36.6-17.4-50.4C585.8,260.8,555,250.3,534.4,244.6z"/>
<linearGradient id="SVGID_3_" gradientUnits="userSpaceOnUse" x1="132.7556" y1="500" x2="317.5893" y2="500">
	<stop  offset="0" style="stop-color:#1E14A5"/>
	<stop  offset="1" style="stop-color:#CCCCCC"/>
</linearGradient>
<path class="st2" d="M304.5,776.5c-1.1,0-2.3-0.2-3.4-0.7c-1.5-0.6-147.9-63.1-165.7-230.1C121.5,415,179.1,345,195.4,328
	c-0.1-13.1,2-46.8,22.9-67c24.6-23.8,85.5-36.8,88.1-37.4c3-0.6,6.1,0.3,8.2,2.5s3,5.3,2.2,8.3c-0.6,2.6-15.7,63-40.3,86.8
	c-22,21.3-58.3,21.2-69.6,20.5c-15.6,17.2-66.5,83.2-53.8,202c16.6,156.3,153.4,215,154.8,215.6c4.5,1.9,6.7,7.1,4.8,11.6
	C311.3,774.5,308,776.5,304.5,776.5z"/>
<linearGradient id="SVGID_4_" gradientUnits="userSpaceOnUse" x1="212.7838" y1="284.3304" x2="296.246" y2="284.3304">
	<stop  offset="0" style="stop-color:#1E14A5"/>
	<stop  offset="1" style="stop-color:#CCCCCC"/>
</linearGradient>
<path class="st3" d="M213.3,324.2c0.1,0,0.2,0,0.2,0c12.5,0,36.5-2,50.7-15.7c13.5-13.1,25-43.5,31.3-63.9
	c-20.6,5.6-51.4,16.1-64.9,29.2C216.4,287.6,213.7,311.7,213.3,324.2z"/>
<linearGradient id="SVGID_5_" gradientUnits="userSpaceOnUse" x1="636.7697" y1="695.2271" x2="778.9045" y2="695.2271">
	<stop  offset="0" style="stop-color:#1E14A5"/>
	<stop  offset="1" style="stop-color:#CCCCCC"/>
</linearGradient>
<path class="st4" d="M697.9,730.1c-0.7,0-1.3,0-1.9,0c-31-1.1-55.6-29.7-56.6-31c-3-3.5-2.8-8.7,0.4-12c1.1-1.1,27.7-27.8,58.7-26.8
	c29.5,1.1,73.8,28.8,75.7,30c2.7,1.7,4.3,4.7,4.2,7.9s-1.9,6-4.7,7.5C771.8,706.8,727.4,730.1,697.9,730.1z"/>
<linearGradient id="SVGID_6_" gradientUnits="userSpaceOnUse" x1="658.3249" y1="695.2915" x2="751.5319" y2="695.2915">
	<stop  offset="0" style="stop-color:#1E14A5"/>
	<stop  offset="1" style="stop-color:#CCCCCC"/>
</linearGradient>
<path class="st5" d="M659.1,693.8c7.8,7.1,22.1,17.9,37.5,18.5c14.8,0.5,37.7-7.9,53.8-15.1c-15.6-8.4-37.8-18.5-52.6-19l0,0
	C683.3,677.7,668.2,686.7,659.1,693.8z"/>
<linearGradient id="SVGID_7_" gradientUnits="userSpaceOnUse" x1="51.0956" y1="695.2242" x2="193.2305" y2="695.2242">
	<stop  offset="0" style="stop-color:#1E14A5"/>
	<stop  offset="1" style="stop-color:#CCCCCC"/>
</linearGradient>
<path class="st6" d="M132.1,730.1c-29.5,0-73.9-23.4-75.8-24.4c-2.8-1.5-4.6-4.4-4.7-7.5c-0.1-3.2,1.5-6.2,4.2-7.9
	c1.9-1.2,46.3-28.9,75.7-30c31-1.1,57.6,25.6,58.7,26.8c3.2,3.3,3.4,8.5,0.4,12c-1,1.2-25.6,29.8-56.6,31
	C133.4,730.1,132.7,730.1,132.1,730.1z"/>
<linearGradient id="SVGID_8_" gradientUnits="userSpaceOnUse" x1="78.3656" y1="695.2883" x2="171.5755" y2="695.2883">
	<stop  offset="0" style="stop-color:#1E14A5"/>
	<stop  offset="1" style="stop-color:#CCCCCC"/>
</linearGradient>
<path class="st7" d="M79.5,697.2c16.2,7.2,39.1,15.6,53.8,15.1c14.6-0.5,29-10.7,37.5-18.4c-8.3-6.5-23.3-16.3-38.8-15.7
	C117.3,678.7,95.1,688.8,79.5,697.2z"/>
<linearGradient id="SVGID_9_" gradientUnits="userSpaceOnUse" x1="569.6212" y1="613.8475" x2="640.407" y2="613.8475">
	<stop  offset="0" style="stop-color:#1E14A5"/>
	<stop  offset="1" style="stop-color:#CCCCCC"/>
</linearGradient>
<path class="st8" d="M618,674.5c-1.2,0-2.3-0.2-3.4-0.7c-1.4-0.6-34.1-14.6-42.1-41.3l0,0c-7.4-24.8,4.7-68,6.1-72.9
	c0.8-2.9,3.1-5.2,6-6.1c2.9-0.9,6-0.2,8.3,1.8c3.8,3.3,37.7,32.8,45.1,57.6c8,26.7-11.7,56.4-12.6,57.6
	C623.7,673.1,620.9,674.5,618,674.5z"/>
<linearGradient id="SVGID_10_" gradientUnits="userSpaceOnUse" x1="587.3617" y1="616.2386" x2="622.5801" y2="616.2386">
	<stop  offset="0" style="stop-color:#1E14A5"/>
	<stop  offset="1" style="stop-color:#CCCCCC"/>
</linearGradient>
<path class="st9" d="M589.5,627.4c3.7,12.4,16.8,21.6,25,26.4c4.3-8.4,10.1-23.3,6.4-35.8c-3.6-12.1-17.7-28.1-28.8-39.1
	C588.9,594.3,585.9,615.4,589.5,627.4L589.5,627.4z"/>
<linearGradient id="SVGID_11_" gradientUnits="userSpaceOnUse" x1="189.6" y1="613.9194" x2="260.3789" y2="613.9194">
	<stop  offset="0" style="stop-color:#1E14A5"/>
	<stop  offset="1" style="stop-color:#CCCCCC"/>
</linearGradient>
<path class="st10" d="M212,674.5c-2.9,0-5.7-1.4-7.4-3.9c-0.8-1.2-20.6-30.9-12.6-57.6c7.4-24.8,41.2-54.3,45.1-57.6
	c2.3-2,5.4-2.6,8.3-1.8c2.9,0.9,5.2,3.1,6,6.1c1.4,4.8,13.5,48.1,6.1,72.9c-8,26.7-40.7,40.7-42.1,41.3
	C214.3,674.3,213.2,674.5,212,674.5z"/>
<linearGradient id="SVGID_12_" gradientUnits="userSpaceOnUse" x1="207.42" y1="616.3375" x2="242.6384" y2="616.3375">
	<stop  offset="0" style="stop-color:#1E14A5"/>
	<stop  offset="1" style="stop-color:#CCCCCC"/>
</linearGradient>
<path class="st11" d="M237.9,579c-11.1,11-25.2,27-28.8,39.1c-3.7,12.5,2.1,27.3,6.4,35.8c8.2-4.7,21.2-13.9,25-26.4
	C244.1,615.4,241.1,594.3,237.9,579z"/>
<linearGradient id="SVGID_13_" gradientUnits="userSpaceOnUse" x1="684.4634" y1="593.6331" x2="820.5491" y2="593.6331">
	<stop  offset="0" style="stop-color:#1E14A5"/>
	<stop  offset="1" style="stop-color:#CCCCCC"/>
</linearGradient>
<path class="st12" d="M735.3,630.4c-23.5,0-44.8-12.1-45.9-12.8c-3.9-2.3-5.5-7.1-3.7-11.3c0.7-1.5,16.2-36.3,45.8-45.9
	c28-9.2,79.5,2,81.6,2.5c3.1,0.7,5.6,2.9,6.5,5.9c1,3,0.3,6.3-1.8,8.6c-1.5,1.7-36.4,41-64.4,50.2
	C747.4,629.6,741.2,630.4,735.3,630.4z"/>
<linearGradient id="SVGID_14_" gradientUnits="userSpaceOnUse" x1="705.2766" y1="593.7188" x2="794.2614" y2="593.7188">
	<stop  offset="0" style="stop-color:#1E14A5"/>
	<stop  offset="1" style="stop-color:#CCCCCC"/>
</linearGradient>
<path class="st13" d="M706,606c9.8,4.1,27.1,9.6,41.8,4.8c14.2-4.6,32.8-20.8,45.4-33.3c-17.6-2.6-42.2-4.7-56.3-0.1l0,0
	C722.1,582.2,711.4,596.9,706,606z"/>
<linearGradient id="SVGID_15_" gradientUnits="userSpaceOnUse" x1="9.4509" y1="593.705" x2="145.5366" y2="593.705">
	<stop  offset="0" style="stop-color:#1E14A5"/>
	<stop  offset="1" style="stop-color:#CCCCCC"/>
</linearGradient>
<path class="st14" d="M94.7,630.4c-6,0-12.1-0.8-18.1-2.7c-28.1-9.2-63-48.5-64.4-50.2c-2.1-2.4-2.8-5.7-1.8-8.6
	c1-3,3.5-5.3,6.5-5.9c2.2-0.5,53.6-11.6,81.6-2.5c29.5,9.6,45.1,44.4,45.8,45.9c1.8,4.2,0.2,9-3.7,11.3
	C139.6,618.3,118.3,630.4,94.7,630.4z"/>
<linearGradient id="SVGID_16_" gradientUnits="userSpaceOnUse" x1="35.6387" y1="593.6092" x2="124.7229" y2="593.6092">
	<stop  offset="0" style="stop-color:#1E14A5"/>
	<stop  offset="1" style="stop-color:#CCCCCC"/>
</linearGradient>
<path class="st15" d="M36.7,577.4c12.6,12.5,31.3,28.7,45.4,33.3c14,4.6,31.2-0.3,41.9-4.8c-5.4-9.1-16.2-23.8-31-28.6
	C78.9,572.7,54.3,574.8,36.7,577.4z"/>
<linearGradient id="SVGID_17_" gradientUnits="userSpaceOnUse" x1="334.1977" y1="507.8538" x2="487.4189" y2="507.8538">
	<stop  offset="0" style="stop-color:#1E14A5"/>
	<stop  offset="1" style="stop-color:#CCCCCC"/>
</linearGradient>
<path class="st16" d="M452.5,580.7c-1.4,0-2.8-0.3-4.1-1L410.9,560l-37.4,19.7c-3,1.6-6.6,1.3-9.4-0.7c-2.7-2-4.1-5.4-3.5-8.7
	l7.1-41.7l-30.3-29.5c-2.4-2.4-3.3-5.9-2.3-9.1s3.8-5.6,7.2-6.1l41.8-6.1l18.7-37.9c1.5-3,4.6-5,8-5l0,0c3.4,0,6.5,1.9,8,5
	l18.7,37.9l41.8,6.1c3.4,0.5,6.1,2.8,7.2,6.1c1,3.2,0.2,6.8-2.3,9.1l-30.3,29.5l7.1,41.7c0.6,3.3-0.8,6.7-3.5,8.7
	C456.2,580.2,454.3,580.7,452.5,580.7z"/>
<linearGradient id="SVGID_18_" gradientUnits="userSpaceOnUse" x1="361.7276" y1="509.7836" x2="460.0725" y2="509.7836">
	<stop  offset="0" style="stop-color:#1E14A5"/>
	<stop  offset="1" style="stop-color:#CCCCCC"/>
</linearGradient>
<path class="st17" d="M410.9,541.1c1.4,0,2.8,0.3,4.1,1l25.6,13.5l-4.9-28.5c-0.5-2.9,0.5-5.8,2.6-7.9L459,499l-28.6-4.2
	c-2.9-0.4-5.4-2.2-6.7-4.9L410.9,464l-12.8,26c-1.3,2.6-3.8,4.4-6.7,4.9l-28.6,4.2l20.7,20.2c2.1,2,3.1,5,2.6,7.9l-4.9,28.5
	l25.6-13.5C408.1,541.4,409.5,541.1,410.9,541.1z"/>
<linearGradient id="SVGID_19_" gradientUnits="userSpaceOnUse" x1="583.0384" y1="511.35" x2="674.7186" y2="511.35">
	<stop  offset="0" style="stop-color:#1E14A5"/>
	<stop  offset="1" style="stop-color:#CCCCCC"/>
</linearGradient>
<path class="st18" d="M664.2,560.2c-5.5,0-36.6-0.9-53.8-20l0,0c-17.3-19.1-25.7-62.5-26.7-67.4c-0.6-3,0.5-6.2,2.8-8.2
	c2.3-2.1,5.5-2.8,8.5-1.9c4.8,1.4,47.1,14.3,64.4,33.4c18.6,20.6,14.5,55,14.3,56.4c-0.6,4.4-4.2,7.7-8.6,7.8
	C664.9,560.2,664.7,560.2,664.2,560.2z"/>
<linearGradient id="SVGID_20_" gradientUnits="userSpaceOnUse" x1="604.0719" y1="513.2159" x2="656.906" y2="513.2159">
	<stop  offset="0" style="stop-color:#1E14A5"/>
	<stop  offset="1" style="stop-color:#CCCCCC"/>
</linearGradient>
<path class="st19" d="M623.6,528.3c8.6,9.5,23.5,12.6,32.8,13.6c-0.1-9.3-1.6-24.5-10.2-34c-8.3-9.2-27-17.8-41.4-23.2
	C608.7,499.6,615.3,519.1,623.6,528.3L623.6,528.3z"/>
<linearGradient id="SVGID_21_" gradientUnits="userSpaceOnUse" x1="155.3815" y1="511.2572" x2="247.0617" y2="511.2572">
	<stop  offset="0" style="stop-color:#1E14A5"/>
	<stop  offset="1" style="stop-color:#CCCCCC"/>
</linearGradient>
<path class="st20" d="M165.8,560.2c-0.4,0-0.7,0-0.8,0c-4.4-0.1-8.1-3.4-8.6-7.8c-0.2-1.5-4.3-35.8,14.3-56.4
	c17.3-19.1,59.6-32,64.4-33.4c3-0.9,6.2-0.1,8.5,1.9c2.3,2.1,3.4,5.2,2.8,8.2c-0.9,4.9-9.4,48.3-26.7,67.4
	C202.3,559.4,171.3,560.2,165.8,560.2z"/>
<linearGradient id="SVGID_22_" gradientUnits="userSpaceOnUse" x1="173.2" y1="513.3104" x2="226.0389" y2="513.3104">
	<stop  offset="0" style="stop-color:#1E14A5"/>
	<stop  offset="1" style="stop-color:#CCCCCC"/>
</linearGradient>
<path class="st21" d="M225.3,484.8c-14.4,5.5-33.1,14-41.4,23.2c-8.6,9.5-10.2,24.7-10.2,34c9.3-1,24.2-4.1,32.8-13.7
	C214.7,519.1,221.3,499.6,225.3,484.8z"/>
<linearGradient id="SVGID_23_" gradientUnits="userSpaceOnUse" x1="25.6192" y1="467.9189" x2="129.7852" y2="467.9189">
	<stop  offset="0" style="stop-color:#1E14A5"/>
	<stop  offset="1" style="stop-color:#CCCCCC"/>
</linearGradient>
<path class="st22" d="M117.7,521.5c-9.6,0-40.8-1.6-59.2-20.9c-20.4-21.4-31.7-73.4-32.2-75.6c-0.6-3,0.3-6.2,2.6-8.3
	c2.2-2.1,5.4-3,8.4-2.1c2.2,0.6,53.5,14.5,73.9,35.9c21.5,22.6,17.9,61.3,17.8,63c-0.4,4.4-4,7.8-8.4,8
	C120.3,521.4,119.3,521.5,117.7,521.5z"/>
<linearGradient id="SVGID_24_" gradientUnits="userSpaceOnUse" x1="46.7575" y1="469.8203" x2="111.9102" y2="469.8203">
	<stop  offset="0" style="stop-color:#1E14A5"/>
	<stop  offset="1" style="stop-color:#CCCCCC"/>
</linearGradient>
<path class="st23" d="M47.5,436.3c4.9,17.2,13.5,41.1,23.9,52c10.3,10.8,28.3,14.3,40,15.2c-0.2-10.7-2.3-29.4-13.1-40.8
	C87.9,451.8,64.5,442.1,47.5,436.3z"/>
<linearGradient id="SVGID_25_" gradientUnits="userSpaceOnUse" x1="700.2722" y1="467.8884" x2="804.4716" y2="467.8884">
	<stop  offset="0" style="stop-color:#1E14A5"/>
	<stop  offset="1" style="stop-color:#CCCCCC"/>
</linearGradient>
<path class="st24" d="M712.3,521.5c-1.6,0-2.6,0-2.8-0.1c-4.4-0.2-8-3.6-8.4-8c-0.2-1.6-3.7-40.4,17.8-63l0,0
	c20.4-21.4,71.7-35.3,73.9-35.9c3-0.8,6.2,0,8.4,2.1s3.2,5.3,2.6,8.3c-0.5,2.2-11.8,54.1-32.2,75.6
	C753.1,519.9,721.8,521.5,712.3,521.5z"/>
<linearGradient id="SVGID_26_" gradientUnits="userSpaceOnUse" x1="718.09" y1="469.7662" x2="783.2486" y2="469.7662">
	<stop  offset="0" style="stop-color:#1E14A5"/>
	<stop  offset="1" style="stop-color:#CCCCCC"/>
</linearGradient>
<path class="st25" d="M731.7,462.7c-10.8,11.4-12.9,30-13.1,40.7c10.7-0.7,29.2-3.7,40-15.1c10.4-10.9,18.9-34.8,23.9-52
	C765.5,442.1,742.1,451.8,731.7,462.7L731.7,462.7z"/>
<linearGradient id="SVGID_27_" gradientUnits="userSpaceOnUse" x1="166.0933" y1="404.7874" x2="288.7458" y2="404.7874">
	<stop  offset="0" style="stop-color:#1E14A5"/>
	<stop  offset="1" style="stop-color:#CCCCCC"/>
</linearGradient>
<path class="st26" d="M213,437.3c-21.7,0-41.2-11.9-42.2-12.5c-3.9-2.4-5.3-7.4-3.3-11.5c0.6-1.3,15.8-31.2,42.3-38.7
	c25.1-7.2,69.8,4,71.7,4.5c3.1,0.8,5.5,3.1,6.4,6.2s0,6.3-2.2,8.6c-1.4,1.4-33.5,34.4-58.6,41.6C222.5,436.7,217.7,437.3,213,437.3z
	"/>
<linearGradient id="SVGID_28_" gradientUnits="userSpaceOnUse" x1="187.3473" y1="404.7388" x2="262.0093" y2="404.7388">
	<stop  offset="0" style="stop-color:#1E14A5"/>
	<stop  offset="1" style="stop-color:#CCCCCC"/>
</linearGradient>
<path class="st27" d="M188.1,413.6c8.4,3.7,22.1,8.1,34.2,4.7c11.7-3.3,27.3-15.4,38.6-25.4c-14.9-2.6-34.5-4.6-46.2-1.3
	C202.6,395,193.3,406,188.1,413.6z"/>
<linearGradient id="SVGID_29_" gradientUnits="userSpaceOnUse" x1="541.1968" y1="404.7582" x2="663.8068" y2="404.7582">
	<stop  offset="0" style="stop-color:#1E14A5"/>
	<stop  offset="1" style="stop-color:#CCCCCC"/>
</linearGradient>
<path class="st28" d="M617,437.3c-4.7,0-9.4-0.6-14.2-1.9l0,0c-25.1-7.1-57.2-40.2-58.6-41.6c-2.2-2.3-3-5.6-2.2-8.6
	c0.9-3.1,3.3-5.4,6.4-6.2c1.9-0.5,46.6-11.6,71.7-4.5c26.6,7.6,41.7,37.5,42.3,38.7c2,4.1,0.6,9.1-3.3,11.5
	C658.2,425.3,638.6,437.3,617,437.3z"/>
<linearGradient id="SVGID_30_" gradientUnits="userSpaceOnUse" x1="567.9907" y1="404.7388" x2="642.6528" y2="404.7388">
	<stop  offset="0" style="stop-color:#1E14A5"/>
	<stop  offset="1" style="stop-color:#CCCCCC"/>
</linearGradient>
<path class="st29" d="M569.1,392.9c11.3,10,26.9,22.1,38.6,25.4l0,0c12,3.4,25.8-1,34.2-4.7c-5.2-7.6-14.5-18.5-26.6-22
	C603.6,388.3,584,390.3,569.1,392.9z"/>
<linearGradient id="SVGID_31_" gradientUnits="userSpaceOnUse" x1="669.0193" y1="343.5516" x2="746.0399" y2="343.5516">
	<stop  offset="0" style="stop-color:#1E14A5"/>
	<stop  offset="1" style="stop-color:#CCCCCC"/>
</linearGradient>
<path class="st30" d="M689.9,410.6c-3.1,0-6.1-1.6-7.7-4.5c-0.8-1.4-20-35.4-9.6-64.8c9.9-27.9,51.2-61.5,53-62.9
	c2.4-1.9,5.7-2.5,8.6-1.5c2.9,1,5.1,3.5,5.7,6.5c0.5,2.2,11.4,54.3,1.5,82.2c-10.4,29.4-46.7,43.7-48.3,44.3
	C692.1,410.4,691,410.6,689.9,410.6z"/>
<linearGradient id="SVGID_32_" gradientUnits="userSpaceOnUse" x1="686.8396" y1="346.0831" x2="728.2808" y2="346.0831">
	<stop  offset="0" style="stop-color:#1E14A5"/>
	<stop  offset="1" style="stop-color:#CCCCCC"/>
</linearGradient>
<path class="st31" d="M725.1,302.5c-13.2,12.2-30.7,30.6-35.7,44.8c-5,14,0.1,31.8,4.7,42.6c9.5-5,25.3-15.3,30.6-30.1
	C729.7,345.6,727.7,320.2,725.1,302.5z"/>
<linearGradient id="SVGID_33_" gradientUnits="userSpaceOnUse" x1="83.98" y1="343.5908" x2="160.9808" y2="343.5908">
	<stop  offset="0" style="stop-color:#1E14A5"/>
	<stop  offset="1" style="stop-color:#CCCCCC"/>
</linearGradient>
<path class="st32" d="M140.1,410.6c-1.1,0-2.1-0.2-3.2-0.6c-1.5-0.6-37.9-14.9-48.3-44.3c-9.9-27.9,1.1-80,1.5-82.2
	c0.6-3,2.8-5.5,5.7-6.5c2.9-1,6.2-0.5,8.6,1.5c1.8,1.4,43.1,35,53,62.9c10.4,29.4-8.8,63.4-9.6,64.8
	C146.1,409,143.2,410.6,140.1,410.6z"/>
<linearGradient id="SVGID_34_" gradientUnits="userSpaceOnUse" x1="101.7764" y1="346.0853" x2="143.2207" y2="346.0853">
	<stop  offset="0" style="stop-color:#1E14A5"/>
	<stop  offset="1" style="stop-color:#CCCCCC"/>
</linearGradient>
<path class="st33" d="M104.9,302.5c-2.6,17.8-4.5,43.1,0.5,57.3c5.3,14.8,21,25.1,30.5,30.1c4.2-9.9,10-27.8,4.7-42.6
	C135.6,333.1,118.1,314.6,104.9,302.5z"/>
</svg>
