<?xml version="1.0" encoding="utf-8"?>
<!-- Generator: Adobe Illustrator 22.1.0, SVG Export Plug-In . SVG Version: 6.00 Build 0)  -->
<svg version="1.1" id="Capa_1" xmlns="http://www.w3.org/2000/svg" xmlns:xlink="http://www.w3.org/1999/xlink" x="0px" y="0px"
	 viewBox="0 0 448.3 448.3" style="enable-background:new 0 0 448.3 448.3;" xml:space="preserve">
<style type="text/css">
	.st0{fill:#1E14A5;}
</style>
<g>
	<g>
		<g>
			<path class="st0" d="M351.6,0h-255C73.6,0,54.9,18.7,54.9,41.8v384.5c0,6.6,3.9,12.5,9.9,15.2c6,2.4,12.9,1.2,17.8-3.1l35-32.4
				l42.8,38.1c2.9,2.6,6.6,4,10.4,4.2c4,0,7.9-1.5,11-4.2l42.3-38.1l42.3,38.1c6.2,5.2,15.2,5.2,21.4,0l42.8-38.1l35,32.4
				c4.9,4.3,11.7,5.5,17.8,3.1c6-2.7,9.9-8.6,9.9-15.2V41.8C393.4,18.7,374.7,0,351.6,0z M372.5,415.9l-30.8-28.2
				c-6.2-5.7-15.7-5.7-21.9,0l-42.3,38.1l-42.3-38.1c-2.9-2.8-6.9-4.3-11-4.2c-4.1-0.1-8,1.4-11,4.2l-42.3,38.1l-42.3-38.1
				c-6.2-5.7-15.7-5.7-21.9,0l-30.8,28.2V41.8c0-11.5,9.4-20.9,20.9-20.9h255c11.5,0,20.9,9.4,20.9,20.9L372.5,415.9L372.5,415.9z"
				/>
			<path class="st0" d="M129.6,259.1h96.7c5.8,0,10.4-4.7,10.4-10.4s-4.7-10.4-10.4-10.4h-96.7c-5.8,0-10.4,4.7-10.4,10.4
				S123.8,259.1,129.6,259.1z"/>
			<path class="st0" d="M318.7,284.2H129.6c-5.8,0-10.4,4.7-10.4,10.4s4.7,10.4,10.4,10.4h189.1c5.8,0,10.4-4.7,10.4-10.4
				S324.5,284.2,318.7,284.2z"/>
			<path class="st0" d="M318.7,330.7H129.6c-5.8,0-10.4,4.7-10.4,10.4s4.7,10.4,10.4,10.4h189.1c5.8,0,10.4-4.7,10.4-10.4
				S324.5,330.7,318.7,330.7z"/>
			<path class="st0" d="M184.9,126.4c19.3,0,35-15.7,35-35s-15.7-35-35-35s-35,15.7-35,35C149.9,110.8,165.6,126.4,184.9,126.4z
				 M184.9,77.3c7.8,0,14.1,6.3,14.1,14.1s-6.3,14.1-14.1,14.1s-14.1-6.3-14.1-14.1S177.2,77.3,184.9,77.3z"/>
			<path class="st0" d="M263.3,134.8c-19.3,0-35,15.7-35,35s15.7,35,35,35l0,0c19.3,0,35-15.7,35-35S282.6,134.8,263.3,134.8z
				 M263.3,183.9c-7.8,0-14.1-6.3-14.1-14.1s6.3-14.1,14.1-14.1s14.1,6.3,14.1,14.1C277.4,177.6,271.1,183.9,263.3,183.9z"/>
			<path class="st0" d="M162.5,192.3c1.9,2,4.6,3.1,7.3,3.1c2.8,0.1,5.5-1.1,7.3-3.1L288.9,80.5c2.8-3.7,2.8-8.8,0-12.5
				c-3.5-4.6-10-5.6-14.6-2.1L162.5,177.1C158.4,181.4,158.4,188,162.5,192.3z"/>
		</g>
	</g>
</g>
</svg>
