<?xml version="1.0" encoding="utf-8"?>
<!-- Generator: Adobe Illustrator 22.1.0, SVG Export Plug-In . SVG Version: 6.00 Build 0)  -->
<svg version="1.1" id="Layer_1" xmlns="http://www.w3.org/2000/svg" xmlns:xlink="http://www.w3.org/1999/xlink" x="0px" y="0px"
	 viewBox="0 0 841.9 595.3" style="enable-background:new 0 0 841.9 595.3;" xml:space="preserve">
<style type="text/css">
	.st0{fill:#2F3687;}
</style>
<g>
	<path class="st0" d="M506.7,117.4C477.6,89.1,442.1,74.9,400,74.9c-46.9,0-86.2,17.9-117.9,53.6l39.7,45
		c20.2-25.1,45.3-37.7,75.3-37.7c24,0,44.6,7.9,61.6,23.6c11.1,10.2,18.5,22.7,22.4,37.4h-86v55.3h85.3
		c-3.8,13.5-10.6,25.1-20.3,34.8c-16.1,16.1-35.6,24.1-58.5,24.1c-31.4,0-57-12.4-77-37.2l-41,42.1c32.5,36.6,70.8,54.9,114.8,54.9
		c44.1,0,80.4-13.9,108.9-41.7c28.5-27.9,42.8-63,42.8-105.4C550.3,181.3,535.7,145.9,506.7,117.4z"/>
	<polygon class="st0" points="282.2,552.7 550.3,510.4 550.3,451.7 282.2,494 	"/>
</g>
</svg>
