<?xml version="1.0" encoding="utf-8"?>
<!-- Generator: Adobe Illustrator 22.1.0, SVG Export Plug-In . SVG Version: 6.00 Build 0)  -->
<svg version="1.1" id="Capa_1" xmlns="http://www.w3.org/2000/svg" xmlns:xlink="http://www.w3.org/1999/xlink" x="0px" y="0px"
	 viewBox="0 0 512 512" style="enable-background:new 0 0 512 512;" xml:space="preserve">
<style type="text/css">
	.st0{fill:#1E14A5;}
</style>
<g>
	<g>
		<path class="st0" d="M499.6,207.6c-3.7-2.3-8.4-1.8-11.6,1.1c-8.5,7.7-17.2,14.8-26.2,21.4c2-6.5,3.7-12.8,5.1-19
			c15.1-8.6,27.2-22.8,35.1-41.1c7.3-16.9,10.7-36.8,9.8-56.2c-0.2-4.4-3.2-8-7.5-9c-4.3-1-8.6,0.8-10.8,4.6
			c-5.8,10.1-11.9,19.6-18.5,28.8c0-7.9-0.4-15.6-1-23c0-0.1,0-0.3,0-0.4c-1.7-22.9-5.9-45.8-12.5-68.1c-1.2-4-5.4-6.3-9.3-5.1
			c-4,1.2-6.3,5.4-5.1,9.3c4.2,14.2,7.4,28.7,9.5,43.2c-8.2-7.9-16.7-15.3-25.6-22.4c-3.3-2.6-7.9-2.8-11.4-0.5
			c-3.5,2.3-5.1,6.6-4,10.7c9,33.1,24.1,61.3,43.6,82c-0.5,6.3-1.2,12.8-2.2,19.5c-5.5-9.7-11.3-18.9-17.6-27.9
			c-2.4-3.4-6.7-4.9-10.7-3.7c-4,1.2-6.8,4.8-7,8.9c-1,23.3,1.3,57.4,17.5,89c-2.3,5.8-4.8,11.6-7.7,17.5
			c-2.4-10.8-5.4-21.2-8.8-31.6c-1.3-3.9-5-6.6-9.2-6.7c0,0-0.1,0-0.1,0c-4.1,0-7.8,2.6-9.2,6.5c-10.8,30.4-13.9,62.1-8.9,89.8
			c-3.9,4.9-8,9.8-12.5,14.7c0.8-11,1.1-21.9,0.8-32.9c-0.1-4.2-2.9-7.8-6.8-9c-4-1.2-8.3,0.2-10.8,3.5
			c-19.2,26.1-31.7,55.8-35.4,83.9c-20,15.1-30.6,19.1-41.7,23.3c-9.2,3.5-18.6,7-32.8,16.5c-14.2-9.5-23.6-13-32.8-16.5
			c-11.2-4.2-21.7-8.2-41.7-23.3c-3.7-28.2-16.2-57.8-35.4-83.9c-2.5-3.3-6.8-4.8-10.8-3.5c-4,1.2-6.7,4.9-6.8,9.1
			c-0.3,11,0,21.8,0.8,32.9c-4.5-4.9-8.6-9.8-12.5-14.7c4.9-27.7,1.8-59.4-8.9-89.8c-1.4-3.9-5.1-6.5-9.2-6.5c0,0-0.1,0-0.1,0
			c-4.2,0-7.9,2.7-9.2,6.7c-3.5,10.4-6.4,20.8-8.8,31.6c-2.8-5.9-5.4-11.8-7.7-17.5c16.2-31.6,18.5-65.6,17.5-89
			c-0.2-4.2-3-7.8-7-8.9c-4-1.2-8.3,0.3-10.7,3.7c-6.3,9-12.2,18.2-17.6,27.9c-1-6.7-1.7-13.2-2.2-19.5c19.6-20.6,34.6-48.8,43.6-82
			c1.1-4.1-0.5-8.4-4-10.7c-3.5-2.3-8.1-2.1-11.4,0.5c-8.9,7-17.4,14.4-25.6,22.4c2.1-14.5,5.3-29,9.5-43.2c1.2-4-1.1-8.2-5.1-9.3
			c-4-1.2-8.2,1.1-9.3,5.1C43.9,69,39.6,91.9,37.9,114.7c0,0.2,0,0.3,0,0.5c-0.6,7.4-1,15.1-1,23c-6.6-9.2-12.7-18.7-18.5-28.8
			c-2.2-3.8-6.5-5.6-10.8-4.6c-4.2,1-7.2,4.6-7.5,9c-1,19.4,2.5,39.3,9.8,56.2c7.9,18.3,20,32.5,35.1,41.1c1.4,6.2,3.1,12.6,5.1,19
			c-9-6.6-17.6-13.7-26.2-21.4c-3.2-2.9-7.9-3.4-11.6-1.1c-3.7,2.3-5.5,6.6-4.4,10.8c8.7,33.4,33.9,69.9,71,78.2
			c3.2,5.5,6.6,11,10.4,16.6c-10.5-3.7-20.8-7.9-31.2-12.8c-3.9-1.8-8.5-0.9-11.4,2.4c-2.9,3.2-3.3,7.9-1,11.6
			c17.2,28,49.5,54.3,85.4,54.3c1.8,0,3.5-0.1,5.3-0.2c9.9,9.3,21.2,18.4,33.5,27.1c23.3,17.9,35.8,22.6,47.9,27.2
			c7.5,2.8,14.9,5.6,25,11.9c-7.8,6-16.8,13.4-27.4,23c-3.1,2.8-3.4,7.5-0.6,10.6c1.5,1.7,3.5,2.5,5.6,2.5c1.8,0,3.6-0.6,5-1.9
			c12.4-11.1,22.3-19.2,30.5-25.3c8.2,6.1,18.1,14.2,30.5,25.3c1.4,1.3,3.2,1.9,5,1.9c2.1,0,4.1-0.8,5.6-2.5
			c2.8-3.1,2.5-7.8-0.6-10.6c-10.7-9.6-19.7-17-27.4-23c10.1-6.2,17.5-9,25-11.9c12.1-4.6,24.6-9.3,47.9-27.2
			c12.4-8.7,23.6-17.8,33.6-27.1c1.8,0.1,3.5,0.2,5.3,0.2c35.9,0,68.2-26.4,85.4-54.3c2.3-3.7,1.8-8.3-1-11.6
			c-2.9-3.2-7.5-4.2-11.4-2.4c-10.4,4.8-20.7,9-31.2,12.8c3.7-5.6,7.2-11.1,10.4-16.6c37.1-8.3,62.3-44.8,71-78.2
			C505.1,214.2,503.3,209.9,499.6,207.6z M471.5,187.4c0.2-1.3,0.4-2.7,0.6-4c0.1-0.8,0.2-1.6,0.3-2.4c0.2-1.2,0.3-2.5,0.5-3.7
			c0.1-0.8,0.2-1.6,0.3-2.5c0.1-1.2,0.3-2.4,0.4-3.6c0.1-0.8,0.2-1.6,0.2-2.4c0.1-1.2,0.2-2.4,0.3-3.5c0-0.4,0.1-0.9,0.1-1.3
			c7.9-9.6,15.1-19.5,21.9-29.9c-2.4,20.4-10.4,41.2-24.9,55.1C471.4,188.6,471.5,188,471.5,187.4z M15.9,134.1
			c6.8,10.4,14,20.3,21.9,29.9c0,0.5,0.1,0.9,0.1,1.4c0.1,1.1,0.2,2.3,0.3,3.4c0.1,0.8,0.2,1.7,0.2,2.5c0.1,1.2,0.2,2.3,0.4,3.5
			c0.1,0.8,0.2,1.7,0.3,2.5c0.1,1.2,0.3,2.4,0.5,3.7c0.1,0.8,0.2,1.6,0.3,2.4c0.2,1.3,0.4,2.7,0.6,4c0.1,0.6,0.2,1.2,0.3,1.8
			C26.2,175.3,18.3,154.5,15.9,134.1z M75.4,178.5c-0.8,18.1-4.2,35.3-9.8,50.5c-0.2-0.6-0.4-1.2-0.6-1.8c-0.3-1-0.6-2-0.9-3
			c-0.2-0.8-0.5-1.6-0.7-2.4c-0.3-1-0.6-2-0.8-3c-0.2-0.8-0.4-1.6-0.7-2.4c-0.3-1-0.5-2-0.8-2.9c-0.2-0.8-0.4-1.6-0.6-2.4
			c-0.2-1-0.5-1.9-0.7-2.9c-0.1-0.4-0.2-0.8-0.3-1.2C64.4,197,69.7,187.6,75.4,178.5z M51.9,136.5c0-0.9,0-1.7,0-2.6
			c0-1.1,0-2.1,0.1-3.2c0-0.9,0.1-1.7,0.1-2.5c0-1.1,0.1-2.1,0.1-3.1c0-0.8,0.1-1.7,0.1-2.5c0.1-1,0.1-2.1,0.2-3.1
			c0-0.4,0.1-0.9,0.1-1.3c7.8-8.3,15.7-16.1,23.9-23.3c-6.4,17.8-14.7,33.6-24.7,46.9c0-0.6,0-1.3,0-1.9
			C51.9,138.7,51.9,137.6,51.9,136.5z M29,232.7c9.5,7.7,19.3,14.8,29.5,21.5c0.2,0.4,0.3,0.8,0.5,1.3c0.4,1,0.8,2,1.2,3.1
			c0.3,0.8,0.6,1.6,1,2.4c0.4,1,0.9,2.1,1.3,3.1c0.3,0.8,0.7,1.5,1,2.3c0.5,1.1,1,2.2,1.5,3.3c0.3,0.7,0.7,1.5,1,2.2
			c0.6,1.2,1.1,2.4,1.7,3.6c0.3,0.5,0.5,1.1,0.8,1.6C50.8,268.2,37.3,251.1,29,232.7z M98.6,256.8c4.4,17.3,6.2,34.6,5.2,50.9
			c-0.3-0.5-0.7-1-1-1.5c-0.6-0.9-1.2-1.8-1.8-2.7c-0.5-0.7-0.9-1.4-1.4-2.1c-0.6-0.9-1.1-1.8-1.7-2.6c-0.4-0.7-0.9-1.4-1.3-2.1
			c-0.5-0.9-1.1-1.7-1.6-2.6c-0.4-0.7-0.9-1.4-1.3-2.1c-0.5-0.8-1-1.7-1.5-2.5c-0.2-0.4-0.4-0.7-0.6-1.1
			C93.5,277.5,95.8,267,98.6,256.8z M69.9,321.9c11.3,4.6,22.7,8.5,34.5,11.9c0.3,0.4,0.6,0.7,0.8,1.1c0.7,0.9,1.4,1.8,2.1,2.6
			c0.5,0.6,1.1,1.3,1.6,1.9c0.7,0.9,1.5,1.8,2.2,2.7c0.5,0.6,1.1,1.3,1.6,1.9c0.8,0.9,1.6,1.8,2.4,2.8c0.5,0.6,1.1,1.2,1.6,1.8
			c0.9,1,1.8,2,2.8,3c0.4,0.4,0.8,0.9,1.2,1.3C101.1,349.5,83.2,337,69.9,321.9z M162.3,371c-0.9-0.7-1.7-1.4-2.6-2.1
			c-0.7-0.5-1.3-1.1-1.9-1.6c-0.8-0.7-1.6-1.4-2.4-2c-0.6-0.5-1.3-1.1-1.9-1.7c-0.8-0.7-1.5-1.4-2.3-2c-0.6-0.6-1.2-1.1-1.9-1.7
			c-0.7-0.7-1.5-1.4-2.2-2c-0.3-0.3-0.6-0.6-0.9-0.9c-1.5-11-2.4-21.8-2.7-32.5c9.4,15.4,16.3,31.6,20.2,47.6
			C163.2,371.8,162.8,371.4,162.3,371z M365.8,357.1c-0.3,0.3-0.6,0.6-0.9,0.9c-0.7,0.7-1.5,1.4-2.2,2.1c-0.6,0.6-1.2,1.1-1.8,1.7
			c-0.8,0.7-1.5,1.4-2.3,2c-0.6,0.6-1.3,1.1-1.9,1.7c-0.8,0.7-1.6,1.3-2.4,2c-0.7,0.5-1.3,1.1-2,1.6c-0.8,0.7-1.6,1.3-2.5,2
			c-0.5,0.4-1,0.8-1.5,1.2c4-16,10.9-32.2,20.2-47.6C368.2,335.3,367.3,346,365.8,357.1z M413.4,256.8c2.8,10.3,5.1,20.7,7,31.6
			c-0.2,0.4-0.4,0.7-0.6,1.1c-0.5,0.8-1,1.7-1.5,2.5c-0.4,0.7-0.9,1.4-1.3,2.1c-0.5,0.8-1,1.7-1.6,2.5c-0.4,0.7-0.9,1.4-1.3,2.1
			c-0.5,0.9-1.1,1.7-1.6,2.6c-0.5,0.7-0.9,1.4-1.4,2.1c-0.6,0.8-1.1,1.7-1.7,2.5c-0.4,0.5-0.7,1-1.1,1.6
			C407.2,291.4,409,274.1,413.4,256.8z M442.1,321.9c-13.3,15.1-31.2,27.6-50.8,30.9c0.4-0.5,0.9-1,1.3-1.4c0.9-0.9,1.7-1.9,2.6-2.8
			c0.6-0.6,1.1-1.3,1.7-1.9c0.8-0.9,1.6-1.8,2.4-2.7c0.6-0.6,1.1-1.3,1.7-1.9c0.7-0.9,1.5-1.7,2.2-2.6c0.5-0.7,1.1-1.3,1.6-2
			c0.7-0.9,1.4-1.7,2.1-2.6c0.3-0.4,0.6-0.7,0.9-1.1C419.4,330.4,430.8,326.5,442.1,321.9z M435.4,94.9c8.2,7.3,16.1,15,23.9,23.3
			c0,0.4,0.1,0.9,0.1,1.3c0.1,1,0.1,2,0.2,3c0.1,0.8,0.1,1.7,0.1,2.5c0.1,1,0.1,2.1,0.1,3.1c0,0.8,0.1,1.7,0.1,2.5
			c0,1.1,0.1,2.2,0.1,3.3c0,0.8,0,1.7,0,2.5c0,1.1,0,2.2,0,3.3c0,0.6,0,1.2,0,1.9C450.1,128.5,441.8,112.7,435.4,94.9z M436.6,178.5
			c5.7,9.1,10.9,18.5,15.9,28.5c-0.1,0.4-0.2,0.8-0.3,1.2c-0.2,0.9-0.4,1.9-0.7,2.8c-0.2,0.8-0.4,1.6-0.6,2.4c-0.2,1-0.5,2-0.8,2.9
			c-0.2,0.8-0.4,1.6-0.6,2.4c-0.3,1-0.6,2-0.9,3.1c-0.2,0.8-0.4,1.6-0.7,2.3c-0.3,1.1-0.6,2.1-1,3.2c-0.2,0.6-0.3,1.1-0.5,1.7
			C440.8,213.8,437.5,196.6,436.6,178.5z M443.4,277c0.3-0.5,0.5-1.1,0.8-1.6c0.6-1.2,1.2-2.4,1.7-3.6c0.3-0.7,0.7-1.5,1-2.2
			c0.5-1.1,1-2.2,1.5-3.3c0.3-0.8,0.7-1.5,1-2.3c0.5-1.1,0.9-2.1,1.4-3.2c0.3-0.8,0.6-1.5,1-2.3c0.4-1,0.8-2.1,1.3-3.1
			c0.2-0.4,0.3-0.8,0.5-1.2c10.2-6.7,20-13.8,29.5-21.5C474.7,251.1,461.2,268.2,443.4,277z"/>
	</g>
</g>
<g>
	<g>
		<path class="st0" d="M324.3,259.4h-28.2v-16.7c0-4.1-3.4-7.5-7.5-7.5s-7.5,3.4-7.5,7.5v24.2c0,4.1,3.4,7.5,7.5,7.5h30.9v20.7H208
			v-20.7h36.6c4.1,0,7.5-3.4,7.5-7.5V146.4c0-1.3,0-7.4,0-13.9c0-2.9-1.7-5.6-4.3-6.8c-2.6-1.2-5.8-0.8-8,1L207.4,154l-13.8-18.3
			l13.8-11.7c3.2-2.7,3.6-7.4,0.9-10.6c-2.7-3.2-7.4-3.6-10.6-0.9l-15.9,13.4c-4.9,4.2-5.7,11.5-1.8,16.6l17.2,22.8
			c2.3,3.1,5.9,4.8,9.7,4.8c2.9,0,5.6-1,7.8-2.9l22.3-18.7v110.7h-33.9c-5.6,0-10.2,4.6-10.2,10.2V300c0,5.6,4.6,10.2,10.2,10.2
			h121.2c5.6,0,10.2-4.6,10.2-10.2v-30.4C334.5,264,330,259.4,324.3,259.4z"/>
	</g>
</g>
<g>
	<g>
		<path class="st0" d="M283.9,68.3h-29.7c-2.9,0-5.7,1-7.9,2.9l-22,18.7c-3.2,2.7-3.6,7.4-0.9,10.6c2.7,3.2,7.4,3.6,10.6,0.9
			l21.2-18h25.8v124.4c0,4.1,3.4,7.5,7.5,7.5s7.5-3.4,7.5-7.5V80.5C296.1,73.8,290.6,68.3,283.9,68.3z"/>
	</g>
</g>
</svg>
