<?xml version="1.0" encoding="utf-8"?>
<!-- Generator: Adobe Illustrator 22.1.0, SVG Export Plug-In . SVG Version: 6.00 Build 0)  -->
<svg version="1.1" id="Capa_1" xmlns="http://www.w3.org/2000/svg" xmlns:xlink="http://www.w3.org/1999/xlink" x="0px" y="0px"
	 viewBox="0 0 512 512" style="enable-background:new 0 0 512 512;" xml:space="preserve">
<style type="text/css">
	.st0{fill:#1E14A5;}
</style>
<g>
	<g>
		<path class="st0" d="M472.4,64.1H213.2c-6.6,0-12.7-2.6-17.4-7.2l-13.3-13.3c-7.5-7.5-17.4-11.6-28-11.6h-115
			C17.7,32.1,0,49.8,0,71.6v368.7c0,21.8,17.7,39.6,39.6,39.6h432.9c21.8,0,39.6-17.7,39.6-39.6V103.7
			C512,81.9,494.3,64.1,472.4,64.1z M497,112.8c-6.8-5.4-15.3-8.6-24.6-8.6h-8c-4.1,0-7.5,3.4-7.5,7.5c0,4.1,3.4,7.5,7.5,7.5h8
			c13.5,0,24.6,11,24.6,24.6v296.6c0,13.5-11,24.6-24.6,24.6H39.6c-13.5,0-24.6-11-24.6-24.6V143.8c0-13.5,11-24.6,24.6-24.6h392.8
			c4.1,0,7.5-3.4,7.5-7.5c0-4.1-3.4-7.5-7.5-7.5H39.6c-9.3,0-17.8,3.2-24.6,8.6V71.6c0-13.5,11-24.6,24.6-24.6h115
			c6.6,0,12.7,2.6,17.4,7.2l13.3,13.3c7.5,7.5,17.4,11.6,28,11.6h259.3c13.5,0,24.6,11,24.6,24.6L497,112.8L497,112.8z"/>
	</g>
</g>
<g>
	<g>
		<path class="st0" d="M327.6,257.4v-33.5c0-39.5-32.1-71.6-71.6-71.6s-71.6,32.1-71.6,71.6v33.5c-13.8,3.4-24,15.8-24,30.6
			c0,4.1,3.4,7.5,7.5,7.5s7.5-3.4,7.5-7.5c0-9.1,7.4-16.5,16.5-16.5h128.3c9.1,0,16.5,7.4,16.5,16.5v48.1
			c0,44.5-36.2,80.7-80.7,80.7s-80.7-36.2-80.7-80.7v-16c0-4.1-3.4-7.5-7.5-7.5s-7.5,3.4-7.5,7.5v16c0,52.8,42.9,95.7,95.7,95.7
			s95.7-42.9,95.7-95.7v-48.1C351.7,273.3,341.4,260.8,327.6,257.4z M231.4,256.5v-32.6c0-13.5,11-24.6,24.6-24.6
			c13.5,0,24.6,11,24.6,24.6v32.6H231.4z M312.6,256.5h-17.1v-32.6c0-21.8-17.7-39.6-39.6-39.6s-39.6,17.7-39.6,39.6v32.6h-17.1
			v-32.6c0-31.2,25.4-56.6,56.6-56.6s56.6,25.4,56.6,56.6V256.5z"/>
	</g>
</g>
<g>
	<g>
		<path class="st0" d="M256,304.6c-13,0-23.5,10.6-23.5,23.5c0,10.4,6.7,19.2,16,22.3v17.8c0,4.1,3.4,7.5,7.5,7.5s7.5-3.4,7.5-7.5
			v-17.8c9.3-3.1,16-11.9,16-22.3C279.5,315.2,269,304.6,256,304.6z M256,336.7c-4.7,0-8.5-3.8-8.5-8.5c0-4.7,3.8-8.5,8.5-8.5
			c4.7,0,8.5,3.8,8.5,8.5C264.5,332.8,260.7,336.7,256,336.7z"/>
	</g>
</g>
</svg>
