<?xml version="1.0" encoding="utf-8"?>
<!-- Generator: Adobe Illustrator 22.1.0, SVG Export Plug-In . SVG Version: 6.00 Build 0)  -->
<svg version="1.1" id="Слой_1" xmlns="http://www.w3.org/2000/svg" xmlns:xlink="http://www.w3.org/1999/xlink" x="0px" y="0px"
	 viewBox="0 0 1593.2 518.7" style="enable-background:new 0 0 1593.2 518.7;" xml:space="preserve">
<style type="text/css">
	.st0{fill:#FFFFFF;}
</style>
<g id="Слой_11">
	<g>
		<path class="st0" d="M0.1,517.9c0-4,0-7.5,0-11.1c0-94.1-0.3-188.3,0.1-282.4c0.3-86.7,37.2-153.8,112.9-196
			c68.5-38.2,139.5-37.5,208.5,0.2C379.8,60.4,416.7,110,429.3,175c16.7,86-10.3,158-77.4,214c-37.6,31.4-82.2,46.4-130.9,47.8
			c-29.6,0.9-58.5-4.7-85.7-16.7c-6.6-2.9-10.5-1.6-15.6,3.1c-31.3,29.3-63.1,58-94.2,87.6C18.2,517.7,10.9,520.2,0.1,517.9z
			 M44.1,433.9c25.8-25,50-48.5,74.3-72.1c2.8,1.7,5.1,3,7.4,4.5c34.3,21.4,71.6,30,111.6,25.4c107.7-12.4,177.5-119.5,145.9-223.5
			c-25.9-85.3-116.5-138-202.9-118c-79.1,18.3-134.1,83.5-136,165.2C42.8,287.2,44.1,359.2,44.1,433.9z"/>
	</g>
</g>
<g id="Слой_10">
	<g>
		<path class="st0" d="M1413.7,226.3c1,40.9-32.9,75.2-75,75.8c-39.4,0.6-74-33.1-75.2-73.1c-1.3-41.8,31.9-76.4,74.2-77.5
			C1378.5,150.4,1412.7,184.1,1413.7,226.3z M1290.9,226.6c0.1,26.7,21.3,48.1,47.8,48.1c26.3,0.1,48-21.4,48.2-47.8
			c0.2-26.3-21.3-47.9-47.9-48.1C1312.6,178.7,1290.8,200.4,1290.9,226.6z"/>
	</g>
</g>
<g id="Слой_9">
	<g>
		<path class="st0" d="M1198.2,298.7c-8.5,0-16.7,0-26.1,0c0-27.9,0-55.5,0-86.1c-31.7,30.3-61.4,58.6-92.9,88.6
			c0-50.3,0-97.9,0-146.5c8.2,0,16.7,0,26.1,0c0,27.9,0,55.9,0,86.4c31.5-30.3,61.3-59,92.9-89.3
			C1198.2,202.4,1198.2,250.3,1198.2,298.7z"/>
	</g>
</g>
<g id="Слой_8">
	<g>
		<path class="st0" d="M1472.7,154.4c8.8,0,17,0,26.3,0c0,19.2,0,38.3,0,58.1c22.6,0,44.3,0,66.8,0c0-19.5,0-38.5,0-58.1
			c9.1,0,17.4,0,26.7,0c0.2,3,0.5,5.9,0.5,8.8c0,42.3-0.2,84.5,0.2,126.8c0.1,7.7-2.4,10.1-9.7,9.4c-5.3-0.5-10.8-0.1-17.3-0.1
			c0-19.4,0-38.3,0-57.9c-22.6,0-44,0-66.4,0c0,19,0,37.8,0,57.2c-9.5,0-17.9,0-26.9,0C1472.7,250.4,1472.7,202.7,1472.7,154.4z"/>
	</g>
</g>
<g id="Слой_7">
	<g>
		<path class="st0" d="M605.1,261.4c0,13.2,0,24.9,0,37.1c-9.1,0-17.6,0-26.6,0c0-48,0-95.5,0-143.6c1.7-0.4,3.4-1,5-1
			c17.1,0,34.2-0.4,51.2,0.2c29.4,1.1,52.2,25.7,51.5,55s-24.5,52.3-54,52.4C623.6,261.4,615,261.4,605.1,261.4z M605.7,234.8
			c8.1,0,15.3,0.1,22.4-0.1c3.3-0.1,6.5-0.6,9.7-1.3c11.4-2.3,20.5-13.3,21-24.9c0.5-11.4-8-24.5-19.2-26.1
			c-11-1.5-22.3-0.3-33.9-0.3C605.7,199.6,605.7,216.6,605.7,234.8z"/>
	</g>
</g>
<g id="Слой_6">
	<g>
		<path class="st0" d="M752,154.4c28.4,0,56.2,0,84.7,0c0,8.6,0,17.1,0,26.6c-19,0-37.7,0-58.1,0c0,10.1-0.3,19.2,0.3,28.3
			c0.1,1.4,4.2,3.7,6.5,3.8c12,0.4,24,0.3,36,0.1c4.9-0.1,7,1.4,6.9,6.6c-0.5,25.6,3.3,20.3-19.8,20.8c-9.5,0.2-19.1,0-29.9,0
			c0,9.7-0.4,18.6,0.3,27.5c0.1,1.7,4.4,4.2,6.8,4.3c13.5,0.4,27,0.2,40.4,0.2c3.3,0,6.5,0,10.5,0c0,8.9,0,17,0,25.9
			c-28.1,0-56.1,0-84.7,0C752,250.4,752,202.7,752,154.4z"/>
	</g>
</g>
<g id="Слой_5">
	<g>
		<path class="st0" d="M1008.2,154.5c0,8.8,0,17,0,26.5c-19,0-37.7,0-57.5,0c0,39.6,0,78.1,0,117.4c-9.5,0-17.9,0-27,0
			c0-47.7,0-95.5,0-143.9C951.7,154.5,979.4,154.5,1008.2,154.5z"/>
	</g>
</g>
<g id="Слой_4">
	<g>
		<path class="st0" d="M63.2,389.9c-0.5-3.7-0.9-5.2-0.8-6.6c0.1-57.2-0.7-114.5,0.6-171.7c1.7-73.4,59.2-136.1,132-146.1
			c65-9,124,19.2,157.1,75c54.1,91.3,0.3,211.3-104.1,231.2c-41.8,8-81,0.7-116.5-23.6c-10.2-7-19.1-6-28.2,2.9
			C90.4,363.5,77.5,376,63.2,389.9z M216.1,311.5c51,1.3,93.1-38.9,94.8-90.4c1.7-51.4-38.7-93.5-91-95c-50.6-1.4-92.7,38.3-95.1,88
			C122.4,266.7,166.4,312.5,216.1,311.5z"/>
	</g>
</g>
<g id="Слой_3">
	<g>
		<path class="st0" d="M268.8,219.7c-0.1,27.5-23.7,50.6-51.4,50.3c-28.2-0.3-50.4-22.7-50.5-51c-0.1-27.9,22.6-51,50.5-51.3
			C246,167.3,268.9,190.5,268.8,219.7z"/>
	</g>
</g>
<g id="Слой_2_1_">
	<g>
		<path class="st0" d="M616.2,391.9h-26.8v49.7h-9.5v-58.8h36.3V391.9z"/>
		<path class="st0" d="M681.4,402.2c0,11.5-7.8,19.6-20.7,19.6h-14.6v19.9h-9.5v-58.8h24.1C673.5,382.8,681.4,390.6,681.4,402.2z
			 M671.7,402.2c0-6-3.6-10.3-11.3-10.3h-14.3v20.7h14.3C668.1,412.7,671.7,408.2,671.7,402.2z"/>
		<path class="st0" d="M717.3,441.6h-10.6l11.3-20.8l-20.8-38h10.7l15.5,27.7l15.3-27.7h10.5L717.3,441.6z"/>
		<path class="st0" d="M818.8,441.6h-9.5v-49.7h-30.2v49.7h-9.5v-58.8h9.5h39.6L818.8,441.6L818.8,441.6z"/>
		<path class="st0" d="M892.5,441.6H883v-49.7h-30.2v49.7h-9.5v-58.8h9.5h39.6L892.5,441.6L892.5,441.6z"/>
		<path class="st0" d="M954.4,425.9h-25.5l-6,15.8h-10.1l22.8-58.8h12.1l22.8,58.8h-10.1L954.4,425.9z M951,416.9l-9.3-24.6
			l-9.3,24.6H951z"/>
		<path class="st0" d="M1061.4,441.6l-24.9-28.1v28.1h-9.5v-58.8h9.5v26.9l23.8-26.9h11.9l-25.4,28.6l26.5,30.2L1061.4,441.6
			L1061.4,441.6z"/>
		<path class="st0" d="M1147,412.2c-0.1,17.3-13.3,30.4-30.5,30.4s-30.5-13.1-30.5-30.4s13.3-30.4,30.5-30.4
			C1133.8,381.8,1147,394.9,1147,412.2z M1095.6,412.2c0,12.3,9,21.3,20.9,21.3c11.8,0,20.8-9.1,20.8-21.3c0-12.3-9-21.3-20.8-21.3
			C1104.6,390.9,1095.6,400,1095.6,412.2z"/>
		<path class="st0" d="M1224.8,382.8v58.8h-9.5v-45.9l-18.1,27.4h-0.9l-18.1-27.4v45.9h-9.5v-58.8h11.2l16.9,25.4l16.9-25.4H1224.8z
			"/>
		<path class="st0" d="M1298.7,441.6h-9.5v-49.7H1259v49.7h-9.5v-58.8h9.5h39.6L1298.7,441.6L1298.7,441.6z"/>
		<path class="st0" d="M1360.6,425.9h-25.5l-6,15.8H1319l22.8-58.8h12.1l22.8,58.8h-10.1L1360.6,425.9z M1357.1,416.9l-9.3-24.6
			l-9.3,24.6H1357.1z"/>
		<path class="st0" d="M1446.2,382.8v58.8h-9.5v-25.7h-30.2v25.7h-9.5v-58.8h9.5v24h30.2v-24H1446.2z"/>
		<path class="st0" d="M1519.6,382.8v58.8h-9.5V417l0.9-20.8l-29.5,45.4h-11.2v-58.8h9.5v24.6l-0.8,20.7l29.4-45.4h11.2V382.8z"/>
		<path class="st0" d="M1592.7,382.8v58.8h-9.5V417l0.9-20.8l-29.5,45.4h-11.2v-58.8h9.5v24.6l-0.8,20.7l29.4-45.4h11.2V382.8z
			 M1554.3,363.3v-1.8h7.6v1.6c0,3.7,2.4,6,6.2,6c3.7,0,6.1-2.4,6.1-6v-1.6h7.6v1.8c0,8.1-6.4,13.1-13.7,13.1
			C1560.7,376.4,1554.3,371.4,1554.3,363.3z"/>
	</g>
</g>
</svg>
