<?xml version="1.0" encoding="utf-8"?>
<!-- Generator: Adobe Illustrator 22.1.0, SVG Export Plug-In . SVG Version: 6.00 Build 0)  -->
<svg version="1.1" id="Capa_1" xmlns="http://www.w3.org/2000/svg" xmlns:xlink="http://www.w3.org/1999/xlink" x="0px" y="0px"
	 viewBox="0 0 480 480" style="enable-background:new 0 0 480 480;" xml:space="preserve">
<style type="text/css">
	.st0{fill:#1E14A5;}
</style>
<g>
	<g>
		<path class="st0" d="M480,360V136c0-22.1-17.9-40-40-40h-88V0h-16v184c0,4.4,3.6,8,8,8h27.1L240,270.7L108.9,192H136
			c4.4,0,8-3.6,8-8V0h-16v96H40c-22.1,0-40,17.9-40,40v224c0,22.1,17.9,40,40,40h131.1l-16,32H8c-4.4,0-8,3.6-8,8
			c0,40,42.2,40,56,40h368c13.8,0,56,0,56-40c0-4.4-3.6-8-8-8H324.9l-16-32H440C462.1,400,480,382.1,480,360z M128,176H80
			c-4.4,0-8,3.6-8,8c0,2.8,1.5,5.4,3.9,6.9l160,96c2.5,1.5,5.7,1.5,8.2,0l160-96c3.8-2.3,5-7.2,2.7-11c-1.4-2.4-4-3.9-6.9-3.9h-48
			v-32h80v192H48V144h80V176z M463,448c-2.8,9.8-12.4,16-39,16H56c-26.6,0-36.2-6.2-39-16H463z M172.9,432l16-32h102.1l16,32H172.9z
			 M40,384c-13.3,0-24-10.7-24-24V136c0-13.3,10.7-24,24-24h88v16H40c-4.4,0-8,3.6-8,8v208c0,4.4,3.6,8,8,8h400c4.4,0,8-3.6,8-8V136
			c0-4.4-3.6-8-8-8h-88v-16h88c13.3,0,24,10.7,24,24v224c0,13.3-10.7,24-24,24H40z"/>
	</g>
</g>
</svg>
