<?xml version="1.0" encoding="utf-8"?>
<!-- Generator: Adobe Illustrator 22.1.0, SVG Export Plug-In . SVG Version: 6.00 Build 0)  -->
<svg version="1.1" id="Слой_1" xmlns="http://www.w3.org/2000/svg" xmlns:xlink="http://www.w3.org/1999/xlink" x="0px" y="0px"
	 viewBox="0 0 1900 1500" style="enable-background:new 0 0 1900 1500;" xml:space="preserve">
<style type="text/css">
	.st0{fill:#FFFFFF;}
	.st1{font-family:'Stolzl-Regular';}
	.st2{font-size:100px;}
	.st3{letter-spacing:10;}
</style>
<path class="st0" d="M228.9,1270.5c0-4,0-7.5,0-11.1c0-94.1-0.3-188.3,0.1-282.4c0.3-86.7,37.2-153.8,112.9-196
	c68.5-38.2,139.5-37.5,208.5,0.2c58.2,31.8,95.1,81.4,107.7,146.4c16.7,86-10.3,158-77.4,214c-37.6,31.4-82.2,46.4-130.9,47.8
	c-29.6,0.9-58.5-4.7-85.7-16.7c-6.6-2.9-10.5-1.6-15.6,3.1c-31.3,29.3-63.1,58-94.2,87.6C247,1270.3,239.7,1272.8,228.9,1270.5z
	 M272.9,1186.5c25.8-25,50-48.5,74.3-72.1c2.8,1.7,5.1,3,7.4,4.5c34.3,21.4,71.6,30,111.6,25.4c107.7-12.4,177.5-119.5,145.9-223.5
	c-25.9-85.3-116.5-138-202.9-118c-79.1,18.3-134.1,83.5-136,165.2C271.6,1039.8,272.9,1111.8,272.9,1186.5z"/>
<path class="st0" d="M1642.5,978.9c1,40.9-32.9,75.2-75,75.8c-39.4,0.6-74-33.1-75.2-73.1c-1.3-41.8,31.9-76.4,74.2-77.5
	C1607.3,903,1641.5,936.7,1642.5,978.9z M1519.7,979.2c0.1,26.7,21.3,48.1,47.8,48.1c26.3,0.1,48-21.4,48.2-47.8
	c0.2-26.3-21.3-47.9-47.9-48.1C1541.4,931.3,1519.6,953,1519.7,979.2z"/>
<path class="st0" d="M1427,1051.3c-8.5,0-16.7,0-26.1,0c0-27.9,0-55.5,0-86.1c-31.7,30.3-61.4,58.6-92.9,88.6c0-50.3,0-97.9,0-146.5
	c8.2,0,16.7,0,26.1,0c0,27.9,0,55.9,0,86.4c31.5-30.3,61.3-59,92.9-89.3C1427,955,1427,1002.9,1427,1051.3z"/>
<path class="st0" d="M1701.5,907c8.8,0,17,0,26.3,0c0,19.2,0,38.3,0,58.1c22.6,0,44.3,0,66.8,0c0-19.5,0-38.5,0-58.1
	c9.1,0,17.4,0,26.7,0c0.2,3,0.5,5.9,0.5,8.8c0,42.3-0.2,84.5,0.2,126.8c0.1,7.7-2.4,10.1-9.7,9.4c-5.3-0.5-10.8-0.1-17.3-0.1
	c0-19.4,0-38.3,0-57.9c-22.6,0-44,0-66.4,0c0,19,0,37.8,0,57.2c-9.5,0-17.9,0-26.9,0C1701.5,1003,1701.5,955.3,1701.5,907z"/>
<path class="st0" d="M833.9,1014c0,13.2,0,24.9,0,37.1c-9.1,0-17.6,0-26.6,0c0-48,0-95.5,0-143.6c1.7-0.4,3.4-1,5-1
	c17.1,0,34.2-0.4,51.2,0.2c29.4,1.1,52.2,25.7,51.5,55c-0.7,29.3-24.5,52.3-54,52.4C852.4,1014,843.8,1014,833.9,1014z M834.5,987.4
	c8.1,0,15.3,0.1,22.4-0.1c3.3-0.1,6.5-0.6,9.7-1.3c11.4-2.3,20.5-13.3,21-24.9c0.5-11.4-8-24.5-19.2-26.1c-11-1.5-22.3-0.3-33.9-0.3
	C834.5,952.2,834.5,969.2,834.5,987.4z"/>
<path class="st0" d="M980.8,907c28.4,0,56.2,0,84.7,0c0,8.6,0,17.1,0,26.6c-19,0-37.7,0-58.1,0c0,10.1-0.3,19.2,0.3,28.3
	c0.1,1.4,4.2,3.7,6.5,3.8c12,0.4,24,0.3,36,0.1c4.9-0.1,7,1.4,6.9,6.6c-0.5,25.6,3.3,20.3-19.8,20.8c-9.5,0.2-19.1,0-29.9,0
	c0,9.7-0.4,18.6,0.3,27.5c0.1,1.7,4.4,4.2,6.8,4.3c13.5,0.4,27,0.2,40.4,0.2c3.3,0,6.5,0,10.5,0c0,8.9,0,17,0,25.9
	c-28.1,0-56.1,0-84.7,0C980.8,1003,980.8,955.3,980.8,907z"/>
<path class="st0" d="M1237,907.1c0,8.8,0,17,0,26.5c-19,0-37.7,0-57.5,0c0,39.6,0,78.1,0,117.4c-9.5,0-17.9,0-27,0
	c0-47.7,0-95.5,0-143.9C1180.5,907.1,1208.2,907.1,1237,907.1z"/>
<path class="st0" d="M292,1142.5c-0.5-3.7-0.9-5.2-0.8-6.6c0.1-57.2-0.7-114.5,0.6-171.7c1.7-73.4,59.2-136.1,132-146.1
	c65-9,124,19.2,157.1,75c54.1,91.3,0.3,211.3-104.1,231.2c-41.8,8-81,0.7-116.5-23.6c-10.2-7-19.1-6-28.2,2.9
	C319.2,1116.1,306.3,1128.6,292,1142.5z M444.9,1064.1c51,1.3,93.1-38.9,94.8-90.4c1.7-51.4-38.7-93.5-91-95
	c-50.6-1.4-92.7,38.3-95.1,88C351.2,1019.3,395.2,1065.1,444.9,1064.1z"/>
<path class="st0" d="M497.6,972.3c-0.1,27.5-23.7,50.6-51.4,50.3c-28.2-0.3-50.4-22.7-50.5-51c-0.1-27.9,22.6-51,50.5-51.3
	C474.8,919.9,497.7,943.1,497.6,972.3z"/>
<!-- <text transform="matrix(1 0 0 1 801.7921 1194.2419)" class="st0 st1 st2 st3">ГРУППА КОМПАНИЙ</text> -->
</svg>
