<?xml version="1.0" encoding="utf-8"?>
<!-- Generator: Adobe Illustrator 22.1.0, SVG Export Plug-In . SVG Version: 6.00 Build 0)  -->
<svg version="1.1" id="Слой_1" xmlns="http://www.w3.org/2000/svg" xmlns:xlink="http://www.w3.org/1999/xlink" x="0px" y="0px"
	 viewBox="0 0 637 414.5" style="enable-background:new 0 0 637 414.5;" xml:space="preserve">
<style type="text/css">
	.st0{clip-path:url(#SVGID_2_);fill:#141EA5;}
	.st1{clip-path:url(#SVGID_4_);fill:#141EA5;}
	.st2{clip-path:url(#SVGID_6_);fill:#FFFFFF;}
	.st3{clip-path:url(#SVGID_8_);fill:#FFFFFF;}
	.st4{clip-path:url(#SVGID_10_);fill:#FFFFFF;}
	.st5{clip-path:url(#SVGID_12_);fill:#FFFFFF;}
	.st6{clip-path:url(#SVGID_14_);fill:#FFFFFF;}
	.st7{clip-path:url(#SVGID_16_);fill:#FFFFFF;}
	.st8{clip-path:url(#SVGID_18_);fill:#FFFFFF;}
	.st9{clip-path:url(#SVGID_20_);fill:#FFFFFF;}
	.st10{clip-path:url(#SVGID_22_);fill:#FFFFFF;}
	.st11{clip-path:url(#SVGID_24_);fill:#FFFFFF;}
	.st12{clip-path:url(#SVGID_26_);fill:#FFFFFF;}
	.st13{clip-path:url(#SVGID_28_);fill:#FFFFFF;}
	.st14{clip-path:url(#SVGID_30_);fill:#FFFFFF;}
	.st15{clip-path:url(#SVGID_32_);fill:#FFFFFF;}
	.st16{display:none;clip-path:url(#SVGID_34_);}
	.st17{fill:#141EA5;}
</style>
<g>
	<g>
		<defs>
			<rect id="SVGID_1_" x="6.7" width="622.6" height="448"/>
		</defs>
		<clipPath id="SVGID_2_">
			<use xlink:href="#SVGID_1_"  style="overflow:visible;"/>
		</clipPath>
		<path class="st0" d="M426.9,411.7c2.4-1.7,4.9-3.2,7.1-4.9l0,0c14.1-9.9,27-20.3,38.4-31c2,0.2,3.9,0.2,5.9,0.2
			c41.3,0,78.4-30.2,98.1-62.4c2.7-4.4,2.3-10-1.2-13.8c-3.5-3.9-9-5-13.7-2.9c-11.4,5.3-22.6,9.9-34,14c3.9-5.9,7.4-11.7,10.8-17.5
			c42.5-9.6,71.4-51.5,81.4-89.8c1.4-5-0.8-10.2-5.2-12.9l0,0c-4.4-2.7-10-2.1-14,1.4c-9.3,8.4-18.8,16.1-28.6,23.4
			c2-6.8,3.8-13.4,5.3-19.9c17.3-9.9,31.1-26.1,40.1-47.1c8.4-19.3,12.3-42.2,11.2-64.5c-0.3-5.2-3.8-9.6-9-10.8
			c-5.2-1.2-10.3,1.1-12.9,5.6c-6.4,10.9-13.1,21.4-20.2,31.4c-0.2-8.5-0.5-16.7-1.2-24.6c0-0.2,0-0.3,0-0.6
			c-2-26.1-6.8-52.4-14.3-77.9c-1.4-4.9-6.5-7.6-11.4-6.2s-7.6,6.5-6.2,11.4c4.7,15.6,8.2,31.7,10.6,47.7
			c-9.1-8.7-18.4-16.9-28.1-24.5c-3.9-3.2-9.4-3.3-13.7-0.6c-4.3,2.7-6.2,7.9-4.9,12.9c10.3,37.8,27.5,70.2,49.8,93.7
			c-0.5,6.7-1.2,13.5-2.3,20.3c-6.1-10.6-12.5-20.7-19.4-30.5c-2.9-4.1-8-5.9-12.9-4.4c-4.9,1.4-8.2,5.8-8.4,10.8
			c-1.1,26.7,1.5,65.6,20,101.7c-2.4,6.1-5,12.1-7.9,18.4c-2.7-11.8-5.9-23.2-9.7-34.6c-1.5-4.7-6.1-7.9-11.1-7.9h-0.3
			c-5,0-9.4,3.2-11.1,7.7C492,257.9,488.4,294,494,325.7c-4.1,5.2-8.4,10.2-13.1,15.3c0.9-12.1,1.2-24,0.8-36
			c-0.2-5-3.5-9.4-8.2-10.8c-4.7-1.5-10,0.2-12.9,4.3c-21.9,29.6-36.1,63.3-40.5,95.4"/>
	</g>
	<g>
		<defs>
			<rect id="SVGID_3_" x="6.7" width="622.6" height="448"/>
		</defs>
		<clipPath id="SVGID_4_">
			<use xlink:href="#SVGID_3_"  style="overflow:visible;"/>
		</clipPath>
		<path class="st1" d="M215.2,394.1c-4.3-32.2-18.5-65.9-40.5-95.7c-2.9-3.9-8.2-5.8-12.9-4.3s-8,5.9-8.2,10.8c-0.3,12,0,24,0.8,36
			c-4.7-5.2-9-10.3-13.1-15.3c5.6-31.7,2-67.9-10.3-102.7c-1.7-4.7-6.1-7.9-11.1-7.7c-5,0-9.4,3.2-11.1,8c-3.8,11.4-7,22.8-9.7,34.6
			c-2.9-6.2-5.6-12.3-8-18.4c18.5-36.1,21.1-75,20-101.7c-0.2-5-3.6-9.3-8.4-10.8c-4.9-1.4-10,0.3-12.9,4.4
			c-7,9.9-13.4,19.9-19.4,30.5c-1.1-7-1.8-13.8-2.3-20.3c22.3-23.5,39.5-55.9,49.8-93.7c1.4-4.9-0.6-10-4.9-12.8
			c-4.3-2.7-9.7-2.6-13.7,0.6c-9.7,7.7-19.1,15.8-28.1,24.6c2.4-16.1,5.9-32,10.6-47.7c1.4-4.9-1.4-9.9-6.2-11.4
			c-4.9-1.4-9.9,1.4-11.4,6.2C56.6,33,51.9,59.2,50,85.3c0,0.2,0,0.3,0,0.6c-0.8,7.9-1.1,16.1-1.2,24.6c-7.1-10-13.8-20.5-20.2-31.4
			c-2.6-4.6-7.7-6.8-12.9-5.6s-8.7,5.6-9,10.8c-1.1,22.2,2.9,45.1,11.2,64.5c9.1,21,22.9,37.2,40.1,47.1c1.5,6.5,3.3,13.2,5.3,19.9
			c-9.7-7.3-19.1-15-28.6-23.4c-3.9-3.5-9.4-3.9-14-1.4c-4.4,2.7-6.5,7.9-5.3,12.9c9.9,38.3,38.7,80,81.4,89.8
			c3.3,5.8,7,11.5,10.8,17.5c-11.4-4.1-22.6-8.7-34-14c-4.7-2.1-10.2-1.1-13.7,2.9c-3.5,3.9-3.9,9.4-1.2,13.8
			c19.7,32,56.8,62.4,98.1,62.4c2,0,3.9-0.2,5.9-0.2c11.4,10.6,24.3,21,38.4,31l0,0c2.6,1.8,5.2,3.5,7.7,5.3"/>
	</g>
	<g>
		<defs>
			<rect id="SVGID_5_" x="6.7" width="622.6" height="448"/>
		</defs>
		<clipPath id="SVGID_6_">
			<use xlink:href="#SVGID_5_"  style="overflow:visible;"/>
		</clipPath>
		<path class="st2" d="M585,146.9"/>
		<path class="st2" d="M585.3,143.4c0-0.5,0.2-1.1,0.2-1.5c8.5-10.3,16.2-21,23.7-32.2c-3,21.9-11.5,43.9-26.7,59.2"/>
	</g>
	<g>
		<defs>
			<rect id="SVGID_7_" x="6.7" width="622.6" height="448"/>
		</defs>
		<clipPath id="SVGID_8_">
			<use xlink:href="#SVGID_7_"  style="overflow:visible;"/>
		</clipPath>
		<path class="st3" d="M53.1,168.9c-15.3-15.2-24-37.2-26.9-59.2l0,0c7.3,11.1,15.2,21.7,23.7,32.2"/>
		<path class="st3" d="M51.3,156.6"/>
	</g>
	<g>
		<defs>
			<rect id="SVGID_9_" x="6.7" width="622.6" height="448"/>
		</defs>
		<clipPath id="SVGID_10_">
			<use xlink:href="#SVGID_9_"  style="overflow:visible;"/>
		</clipPath>
		<path class="st4" d="M80,206.7"/>
		<path class="st4" d="M76.2,192.3c-0.2-0.5-0.2-0.9-0.3-1.4c5.2-10.8,10.8-20.8,16.9-30.5l0,0c-1.1,19.3-4.7,37.5-10.5,53.9
			c-0.2-0.5-0.3-0.9-0.5-1.5"/>
		<path class="st4" d="M78.5,200.9"/>
	</g>
	<g>
		<defs>
			<rect id="SVGID_11_" x="6.7" width="622.6" height="448"/>
		</defs>
		<clipPath id="SVGID_12_">
			<use xlink:href="#SVGID_11_"  style="overflow:visible;"/>
		</clipPath>
		<path class="st5" d="M67.1,109.6c0-1.1,0-2.1,0-3.2"/>
		<path class="st5" d="M67.9,91c0-0.5,0.2-0.9,0.2-1.5c8.4-9,16.7-17.2,25.5-25.1c-7,18.8-15.9,35.7-26.4,50.1c0-0.6,0-1.1,0-1.7"/>
	</g>
	<g>
		<defs>
			<rect id="SVGID_13_" x="6.7" width="622.6" height="448"/>
		</defs>
		<clipPath id="SVGID_14_">
			<use xlink:href="#SVGID_13_"  style="overflow:visible;"/>
		</clipPath>
		<path class="st6" d="M84.4,269.9C65.6,259.7,51,241.6,41.8,222l0,0c10.3,8.2,20.8,15.8,31.9,23.1c0.2,0.5,0.5,0.9,0.6,1.5"/>
	</g>
	<g>
		<defs>
			<rect id="SVGID_15_" x="6.7" width="622.6" height="448"/>
		</defs>
		<clipPath id="SVGID_16_">
			<use xlink:href="#SVGID_15_"  style="overflow:visible;"/>
		</clipPath>
		<path class="st7" d="M121.2,297.8"/>
		<path class="st7" d="M113.4,285c-0.3-0.5-0.5-0.9-0.8-1.2c1.8-11.8,4.3-22.9,7.3-34l0,0c4.6,18.5,6.4,36.9,5.5,54.4
			c-0.3-0.5-0.6-0.9-0.9-1.2"/>
	</g>
	<g>
		<defs>
			<rect id="SVGID_17_" x="6.7" width="622.6" height="448"/>
		</defs>
		<clipPath id="SVGID_18_">
			<use xlink:href="#SVGID_17_"  style="overflow:visible;"/>
		</clipPath>
		<path class="st8" d="M135.5,347.5"/>
		<path class="st8" d="M143.7,356.6c-20.8-4.1-40.1-17.2-54.7-33.1l0,0c12.1,4.9,24.5,9.1,37.1,12.8c0.3,0.5,0.6,0.8,0.9,1.2"/>
	</g>
	<g>
		<defs>
			<rect id="SVGID_19_" x="6.7" width="622.6" height="448"/>
		</defs>
		<clipPath id="SVGID_20_">
			<use xlink:href="#SVGID_19_"  style="overflow:visible;"/>
		</clipPath>
		<path class="st9" d="M175.9,363.1c-0.3-0.3-0.8-0.6-1.1-0.9c-1.5-11.8-2.6-23.4-3-34.8c9.9,16.6,17.2,33.7,21.6,50.9
			c-0.3-0.6-0.8-0.9-1.1-1.2l0,0"/>
		<path class="st9" d="M182.7,369.2"/>
	</g>
	<g>
		<defs>
			<rect id="SVGID_21_" x="6.7" width="622.6" height="448"/>
		</defs>
		<clipPath id="SVGID_22_">
			<use xlink:href="#SVGID_21_"  style="overflow:visible;"/>
		</clipPath>
		<path class="st10" d="M448.1,373"/>
		<path class="st10" d="M455.1,367.1"/>
		<path class="st10" d="M443.3,376.9c-0.5,0.3-0.8,0.6-1.2,0.9c4.4-17,11.7-34.3,21.6-50.9c-0.5,11.7-1.5,23.2-3,35.1l0,0"/>
	</g>
	<g>
		<defs>
			<rect id="SVGID_23_" x="6.7" width="622.6" height="448"/>
		</defs>
		<clipPath id="SVGID_24_">
			<use xlink:href="#SVGID_23_"  style="overflow:visible;"/>
		</clipPath>
		<path class="st11" d="M510,304c-0.9-17.3,1.1-35.7,5.5-54.2l0,0c2.9,10.9,5.5,22.2,7.4,33.9"/>
	</g>
	<g>
		<defs>
			<rect id="SVGID_25_" x="6.7" width="622.6" height="448"/>
		</defs>
		<clipPath id="SVGID_26_">
			<use xlink:href="#SVGID_25_"  style="overflow:visible;"/>
		</clipPath>
		<path class="st12" d="M502.1,345"/>
		<path class="st12" d="M508.3,337.4c0.3-0.5,0.6-0.9,1.1-1.2c12.5-3.8,24.8-7.9,37.1-12.8l0,0c-14.6,15.9-33.7,29-54.5,33.1
			c0.5-0.5,0.9-1.1,1.4-1.5c0.8-0.9,1.5-1.7,2.3-2.6"/>
	</g>
	<g>
		<defs>
			<rect id="SVGID_27_" x="6.7" width="622.6" height="448"/>
		</defs>
		<clipPath id="SVGID_28_">
			<use xlink:href="#SVGID_27_"  style="overflow:visible;"/>
		</clipPath>
		<path class="st13" d="M568.1,103.3"/>
		<path class="st13" d="M567.8,97"/>
		<path class="st13" d="M568.3,114.4c-10.5-14.1-19.4-31-26.4-50l0,0c8.8,7.9,17.2,16.1,25.5,25.1"/>
	</g>
	<g>
		<defs>
			<rect id="SVGID_29_" x="6.7" width="622.6" height="448"/>
		</defs>
		<clipPath id="SVGID_30_">
			<use xlink:href="#SVGID_29_"  style="overflow:visible;"/>
		</clipPath>
		<path class="st14" d="M553.1,214.4c-5.8-16.6-9.4-34.9-10.5-54.1l0,0c6.1,9.7,11.7,19.9,16.9,30.5"/>
	</g>
	<g>
		<defs>
			<rect id="SVGID_31_" x="6.7" width="622.6" height="448"/>
		</defs>
		<clipPath id="SVGID_32_">
			<use xlink:href="#SVGID_31_"  style="overflow:visible;"/>
		</clipPath>
		<path class="st15" d="M553.4,264.5c0.5-0.9,0.9-1.8,1.4-2.9"/>
		<path class="st15" d="M560.1,249.7c0.5-1.1,0.9-2.1,1.2-3.2c0.2-0.5,0.5-0.9,0.6-1.5c10.9-7.1,21.6-14.9,31.9-23.1
			c-9.4,19.7-24,37.8-42.8,47.7l0,0c0.3-0.6,0.6-1.2,0.9-1.8"/>
	</g>
	<g>
		<defs>
			<rect id="SVGID_33_" x="6.7" width="622.6" height="448"/>
		</defs>
		<clipPath id="SVGID_34_">
			<use xlink:href="#SVGID_33_"  style="overflow:visible;"/>
		</clipPath>
		<path class="st16" d="M551,269.6"/>
	</g>
</g>
<path class="st17" d="M193.2,146.4c-0.4,0-0.9,0.2-1.3,0.4c-0.4,0-0.5,0.2-0.9,0.4c-0.4,0.2-0.7,0.4-1.1,0.4
	c-0.4,0.2-0.5,0.4-0.9,0.4c-0.4,0.2-0.7,0.4-0.9,0.5c-0.2,0.2-0.4,0.2-0.5,0.4c-0.4,0.4-0.9,0.5-1.3,0.9l-0.2,0.2
	c-0.4,0.4-0.9,0.9-1.3,1.3l-0.2,0.2c-1.1,1.4-2,3.1-2.7,4.7c-1.6,5.2-0.4,11,3.6,14.8l55.4,54.2L228,301.2c0,0.4-0.2,0.5-0.2,0.9
	c0,0.4,0,0.7,0,1.3c0,0.2,0,0.4,0,0.7c0,0.4,0,0.9,0.2,1.4c0,0.2,0,0.4,0.2,0.7c0,0.5,0.2,0.9,0.4,1.4c0,0.2,0,0.2,0.2,0.4l0,0
	c0.4,1.1,0.9,2.2,1.4,3.2l0.2,0.2c0.5,0.9,1.4,2,2.2,2.7l0,0c0.4,0.4,0.9,0.9,1.4,1.3c2.5,1.8,5.4,2.7,8.5,2.7
	c2.3,0,4.5-0.5,6.7-1.6l68.6-36l68.6,36c0.5,0.4,1.3,0.5,2,0.9c0.5,0.2,1.1,0.4,1.6,0.5c0.2,0,0.2,0,0.4,0c0.5,0.2,1.1,0.2,1.6,0.2
	c0.2,0,0.4,0,0.4,0c0.5,0,0.9,0,1.4,0c0.2,0,0.4,0,0.5,0c0.5,0,1.1-0.2,1.4-0.2c0.2,0,0.4,0,0.5-0.2c1.1-0.2,2.3-0.7,3.4-1.3
	c0,0,0.2,0,0.2-0.2c0.4-0.2,0.7-0.4,1.1-0.7c0,0,0.2,0,0.2-0.2c0.2,0,0.2-0.2,0.4-0.2c4.5-3.2,6.7-8.6,5.8-14l-13.1-76.3l55.4-54.2
	c0.5-0.5,0.9-1.1,1.4-1.6c0.2-0.2,0.4-0.4,0.5-0.7c0.2-0.4,0.4-0.5,0.5-0.9c0,0,0-0.2,0.2-0.2c0.2-0.4,0.4-0.9,0.7-1.3
	c0-0.2,0.2-0.4,0.2-0.5c0.2-0.4,0.2-0.7,0.4-1.1c0-0.2,0.2-0.5,0.2-0.7c0.2-0.5,0.2-0.9,0.2-1.4c0-0.2,0-0.4,0-0.5
	c0.9-1.6,0.7-3.2,0.2-5l0,0c0-0.2-0.2-0.4-0.2-0.5c-1.6-5.2-6.1-9-11.7-9.9l-76.7-11.2l-34.4-69.5c-2.5-5-7.4-8.1-13-8.1
	s-10.4,3.1-13,8.1l-34.4,69.5 M375.4,213.5c-2.5,2.5-3.8,6.1-3.1,9.5l11.5,67.7l-60.7-31.9c-1.6-0.9-3.2-1.3-5-1.3
	c-1.8,0-3.4,0.4-5,1.3l-60.7,31.9l11.5-67.7c0.5-3.4-0.5-7-3.1-9.5l-49.1-47.9l67.9-9.9c3.6-0.5,6.5-2.7,8.1-5.9l30.4-61.6
	l30.4,61.6c1.6,3.2,4.7,5.4,8.1,5.9l67.9,9.9L375.4,213.5z"/>
</svg>
